<?xml version="1.0" standalone="no"?>
<!DOCTYPE svg PUBLIC "-//W3C//DTD SVG 20010904//EN"
 "http://www.w3.org/TR/2001/REC-SVG-20010904/DTD/svg10.dtd">
<svg version="1.0" xmlns="http://www.w3.org/2000/svg"
 width="360.000000pt" height="360.000000pt" viewBox="0 0 360.000000 360.000000"
 preserveAspectRatio="xMidYMid meet">

<g transform="translate(0.000000,360.000000) scale(0.100000,-0.100000)"
fill="#000000" stroke="none">
<path d="M1780 3124 c-235 -22 -447 -65 -586 -120 -92 -36 -104 -48 -104 -101
0 -36 -6 -49 -35 -78 -39 -40 -56 -91 -58 -178 -2 -60 -2 -60 32 -72 33 -11
35 -14 53 -95 10 -45 20 -91 23 -101 6 -17 1 -18 -52 -13 -50 5 -63 3 -93 -18
-66 -45 -102 -131 -86 -205 12 -52 94 -140 164 -175 34 -17 62 -37 62 -45 0
-10 -6 -13 -17 -8 -91 36 -177 -11 -212 -114 -28 -85 -7 -130 84 -177 30 -16
55 -35 55 -42 0 -7 -18 -43 -41 -80 -36 -60 -40 -72 -35 -111 4 -25 14 -56 23
-70 20 -31 19 -80 -3 -123 -20 -38 -15 -97 12 -153 25 -54 218 -247 274 -275
25 -13 65 -40 89 -61 63 -56 137 -81 256 -89 120 -7 150 -20 230 -96 121 -115
345 -243 427 -244 44 0 204 52 271 88 66 35 148 127 189 209 32 65 33 72 33
183 0 132 -11 169 -83 288 -49 82 -131 150 -213 179 l-46 17 -6 61 c-3 34 -15
88 -26 121 l-20 59 22 220 c16 155 28 227 39 245 9 14 24 52 33 85 10 33 35
89 56 125 97 164 113 316 43 400 -21 24 -34 30 -65 30 -51 0 -50 16 6 60 25
19 45 39 45 43 0 5 -12 42 -26 83 -25 70 -43 97 -92 136 -15 12 -22 29 -22 52
0 48 -37 76 -153 114 -121 41 -303 59 -447 46z m638 -286 c-2 -21 2 -33 12
-36 12 -4 13 -2 4 9 -7 8 -8 22 -3 34 4 11 8 16 9 10 1 -5 3 -20 6 -32 5 -27
-64 -93 -76 -73 -4 7 -13 9 -20 5 -9 -6 -9 -9 -1 -15 7 -4 -12 -16 -46 -29
-118 -46 -238 -71 -419 -88 -169 -16 -192 -16 -365 0 -271 24 -412 59 -462
115 -18 19 -18 22 -2 46 10 14 21 24 25 21 13 -8 18 -55 7 -62 -27 -17 175
-71 356 -95 114 -15 383 -14 497 1 114 16 331 76 402 112 32 16 58 27 58 24 0
-4 5 -3 10 0 8 5 7 11 -1 21 -6 8 -8 25 -5 39 9 35 18 31 14 -7z m-2 -280
c-15 -111 -27 -244 -46 -488 -23 -293 -36 -430 -51 -535 -13 -91 -59 -467 -59
-481 0 -40 -333 -133 -478 -134 l-34 0 26 31 c18 21 26 42 26 67 0 32 5 40 37
57 70 38 99 108 71 172 -19 43 -40 57 -155 103 -60 23 -110 44 -112 46 -3 2 5
14 16 27 26 28 53 81 53 104 0 10 -5 35 -11 56 -8 30 -19 42 -57 61 -26 13
-58 27 -72 31 -27 8 -174 76 -277 128 -61 31 -63 33 -75 86 -10 46 -10 54 4
62 30 16 58 75 58 118 0 54 -20 93 -84 161 -51 54 -53 58 -84 189 -18 73 -31
135 -30 137 2 1 39 -6 82 -16 187 -45 290 -54 576 -54 212 0 297 4 370 17 107
18 200 46 257 76 21 11 42 20 46 21 5 0 6 -19 3 -42z m83 7 c36 -18 61 -79 61
-146 0 -91 -66 -245 -133 -310 -26 -25 -28 -30 -11 -25 l21 6 -21 -60 c-24
-68 -36 -77 -30 -22 2 20 9 98 14 172 23 317 32 389 49 393 9 3 17 5 19 6 2 0
16 -6 31 -14z m-1350 -311 c113 -117 134 -174 91 -247 -28 -48 -65 -62 -121
-47 -85 23 -150 72 -203 150 -18 28 -21 104 -6 146 19 48 67 84 115 84 40 0
46 -4 124 -86z m51 -365 c6 -23 10 -43 7 -45 -2 -2 -22 8 -45 23 -53 35 -56
63 -7 63 32 0 35 -3 45 -41z m-87 -13 c19 -13 98 -54 174 -91 76 -37 154 -75
173 -85 19 -9 69 -30 110 -45 91 -35 120 -61 120 -110 0 -42 -12 -69 -48 -107
-40 -43 -86 -38 -264 31 -250 97 -414 173 -459 213 -39 35 -41 40 -34 75 9 50
40 108 67 127 36 25 118 21 161 -8z m34 -337 c123 -57 350 -141 398 -147 81
-10 309 -95 333 -125 17 -20 26 -79 18 -111 -4 -15 -24 -38 -46 -52 -36 -24
-47 -26 -103 -21 -34 3 -114 21 -177 41 -63 20 -176 52 -252 71 -310 78 -348
100 -356 198 -4 48 -1 59 32 110 20 31 36 61 36 67 0 18 28 11 117 -31z m1213
-183 c14 -70 8 -150 -22 -256 -25 -93 -50 -142 -84 -169 -14 -11 -24 -25 -22
-31 5 -17 64 43 87 89 23 44 61 174 61 208 0 35 13 35 81 0 92 -46 156 -115
209 -222 l45 -90 0 -115 c0 -111 -1 -118 -34 -185 -39 -78 -105 -155 -166
-190 -52 -31 -236 -95 -273 -95 -61 0 -273 120 -396 226 l-69 59 66 7 c68 6
100 22 160 77 28 26 53 61 42 61 -2 0 -29 -22 -59 -49 -79 -72 -165 -88 -286
-56 -30 8 -84 15 -120 15 -88 0 -177 32 -243 88 -29 25 -70 53 -93 62 -22 10
-54 34 -70 53 -16 19 -39 40 -52 46 -13 7 -52 49 -87 93 -47 59 -67 94 -74
129 -13 57 -7 75 28 94 14 8 20 14 14 15 -7 0 -13 12 -13 26 0 21 3 25 18 19
57 -23 135 -47 262 -79 148 -38 308 -84 324 -94 5 -2 -6 -11 -23 -18 -39 -16
-41 -51 -7 -91 22 -26 30 -28 98 -28 l73 0 9 53 c7 41 13 52 27 52 25 0 25
-45 0 -86 -35 -57 -72 -66 -265 -64 -254 3 -326 1 -326 -10 0 -6 27 -10 60
-10 64 0 73 -8 38 -33 -19 -13 -20 -16 -6 -16 10 -1 25 10 34 23 15 25 18 25
207 30 218 6 316 11 401 21 95 10 242 52 306 86 66 35 63 26 80 184 18 167 33
256 41 243 4 -7 12 -40 19 -72z m-657 -292 c39 -7 40 -9 31 -64 l-6 -35 -70 5
c-59 5 -72 9 -88 30 -22 29 -23 30 -11 48 9 15 67 32 91 26 8 -1 32 -6 53 -10z"/>
<path d="M1767 2175 c-29 -29 -30 -104 -2 -177 4 -10 -1 -17 -14 -21 -12 -3
-21 -11 -21 -17 0 -8 9 -10 24 -6 21 5 26 1 36 -30 15 -43 19 -139 7 -150 -5
-5 -17 2 -27 16 -17 21 -20 22 -20 7 0 -32 20 -57 45 -57 20 0 26 8 36 40 10
32 9 52 -6 111 -16 67 -16 74 -1 84 23 17 20 25 -9 25 -19 0 -26 7 -35 38 -7
20 -10 57 -8 82 3 42 5 45 31 43 29 -2 37 11 11 21 -23 9 -31 8 -47 -9z"/>
<path d="M1860 2165 c-11 -13 -12 -36 -7 -192 0 -21 6 -33 14 -33 17 0 66
-103 61 -128 -2 -9 -10 -16 -17 -14 -7 1 -11 -3 -9 -10 8 -24 38 -20 47 6 11
27 3 63 -23 114 -18 34 -14 52 10 52 8 0 14 6 14 13 0 9 -9 12 -29 9 -25 -3
-30 0 -40 29 -13 39 -14 118 -1 139 8 13 13 13 31 2 19 -12 21 -12 15 3 -3 9
-6 19 -6 21 0 11 -49 2 -60 -11z"/>
<path d="M2172 2133 c-27 -11 -45 -65 -38 -119 6 -52 5 -54 -23 -69 -40 -20
-64 -19 -92 5 -21 17 -22 19 -6 20 31 0 73 27 85 55 27 58 3 103 -45 84 -27
-10 -70 -74 -79 -116 -14 -70 89 -111 161 -63 17 11 40 20 53 20 43 0 101 45
102 78 0 22 -23 13 -51 -20 -32 -39 -47 -32 -25 11 20 38 20 85 0 105 -16 17
-21 18 -42 9z m28 -60 c-1 -35 -18 -73 -34 -73 -10 0 -7 70 4 91 17 30 30 22
30 -18z m-110 2 c0 -25 -27 -72 -45 -79 -50 -19 -57 2 -20 57 26 38 65 51 65
22z"/>
<path d="M1425 2073 c-94 -93 -58 -242 59 -243 30 0 45 7 73 35 31 31 36 33
50 20 8 -8 20 -15 27 -15 37 0 86 78 86 138 0 35 -4 44 -22 51 -27 10 -64 -2
-94 -30 -17 -16 -21 -28 -17 -58 5 -34 1 -44 -32 -80 -30 -33 -44 -41 -72 -41
-65 0 -106 68 -84 141 25 83 102 123 129 67 6 -13 11 -17 11 -10 3 56 -67 71
-114 25z m275 -65 c0 -32 -31 -96 -53 -110 -24 -15 -39 15 -33 65 6 53 25 76
64 77 18 0 22 -5 22 -32z"/>
<path d="M1051 2145 c-40 -34 -48 -61 -24 -87 23 -26 110 -70 130 -66 8 2 22
26 32 55 10 29 14 50 10 47 -4 -2 -13 -21 -19 -42 -7 -20 -16 -41 -20 -45 -9
-10 -85 26 -117 55 -20 19 -21 23 -8 47 7 15 25 33 40 41 23 13 32 12 73 -2
55 -20 70 -15 19 7 -52 21 -81 19 -116 -10z"/>
<path d="M1464 1612 c-17 -11 -34 -48 -34 -76 0 -28 42 -65 103 -91 49 -20 77
-19 77 3 0 14 -2 15 -10 2 -8 -12 -14 -13 -47 -1 -21 8 -55 25 -75 39 -43 28
-50 61 -22 101 16 22 22 23 78 18 34 -3 72 -8 86 -11 14 -3 7 1 -15 8 -43 16
-123 20 -141 8z"/>
<path d="M1625 1519 c-4 -6 -5 -12 -2 -15 2 -3 7 2 10 11 7 17 1 20 -8 4z"/>
<path d="M1641 1254 c-14 -18 -21 -41 -21 -70 l0 -42 64 -22 c36 -12 82 -20
102 -18 35 3 39 6 55 53 29 84 27 90 -39 109 -89 25 -136 22 -161 -10z m156
-1 c29 -9 53 -21 53 -26 0 -6 -8 -35 -17 -65 l-17 -54 -46 4 c-25 3 -67 14
-94 26 -48 22 -48 23 -43 58 12 74 58 90 164 57z"/>
</g>
</svg>
