<?xml version="1.0" standalone="no"?>
<!DOCTYPE svg PUBLIC "-//W3C//DTD SVG 20010904//EN"
 "http://www.w3.org/TR/2001/REC-SVG-20010904/DTD/svg10.dtd">
<svg version="1.0" xmlns="http://www.w3.org/2000/svg"
 width="900.000000pt" height="900.000000pt" viewBox="0 0 900.000000 900.000000"
 preserveAspectRatio="xMidYMid meet">

<g transform="translate(0.000000,900.000000) scale(0.100000,-0.100000)"
fill="#000000" stroke="none">
<path d="M4720 8258 c0 -7 13 -20 28 -29 18 -10 32 -30 40 -56 13 -44 17 -330
4 -350 -5 -8 -50 42 -125 137 -114 143 -151 183 -227 242 -29 23 -31 28 -15
28 13 0 78 -60 187 -172 98 -102 168 -166 168 -156 0 15 -166 199 -285 316
-44 42 -44 42 -119 42 -42 0 -76 -4 -76 -10 0 -5 20 -21 44 -35 29 -17 46 -35
50 -53 4 -15 10 -98 13 -184 6 -176 3 -188 -52 -188 -34 0 -54 -23 -32 -37 15
-10 197 -11 197 -1 0 4 -13 14 -30 23 -42 22 -50 43 -50 132 0 43 -5 116 -10
162 -6 46 -9 86 -6 88 10 10 101 -66 157 -129 31 -34 86 -102 123 -150 87
-113 102 -115 111 -13 8 80 1 291 -11 338 -6 24 -4 27 20 27 34 0 69 18 61 31
-10 14 -165 12 -165 -3z"/>
<path d="M4576 7568 c-3 -13 -6 -43 -7 -68 -1 -25 -8 -94 -18 -155 l-16 -110
-110 -1 c-226 -3 -615 -96 -889 -213 -110 -48 -311 -155 -425 -228 -157 -100
-435 -331 -488 -406 -18 -24 -74 -94 -125 -153 -51 -60 -113 -143 -137 -184
-24 -41 -59 -98 -77 -126 -19 -28 -34 -56 -34 -63 0 -7 -12 -32 -28 -55 -15
-22 -45 -79 -66 -126 -21 -47 -49 -107 -61 -135 -25 -55 -92 -249 -124 -361
-26 -88 -61 -284 -61 -344 -1 -69 -24 -208 -36 -220 -7 -7 -79 -20 -160 -31
-155 -20 -204 -33 -204 -54 0 -16 12 -19 195 -45 99 -14 154 -26 161 -36 11
-14 25 -104 44 -284 13 -118 123 -531 186 -698 61 -163 255 -467 431 -676 59
-71 122 -148 140 -171 66 -89 271 -244 531 -403 76 -46 148 -87 162 -92 14 -4
77 -32 140 -63 286 -137 461 -184 852 -228 58 -6 112 -15 118 -19 7 -4 21 -66
32 -136 20 -134 48 -219 70 -212 19 7 36 69 56 213 l18 130 74 7 c178 17 343
44 425 68 17 5 62 16 100 25 175 40 367 111 509 188 61 33 119 60 129 59 11 0
70 37 133 84 63 46 118 84 122 84 4 0 26 18 47 40 21 22 45 40 51 40 7 0 19 8
26 18 7 9 58 60 113 112 114 108 219 229 390 453 66 86 125 157 130 157 11 0
103 190 170 350 20 47 58 163 85 259 27 95 54 179 60 186 6 7 7 20 4 29 -4 10
0 45 9 79 17 68 37 228 37 302 0 71 10 81 82 89 65 7 184 30 251 47 36 9 49
31 26 45 -13 8 -242 44 -284 44 -16 0 -35 4 -42 8 -6 4 -16 62 -22 142 -20
245 -60 459 -105 568 -13 31 -31 82 -41 112 -45 139 -88 239 -181 419 -130
251 -220 369 -459 605 -157 155 -229 215 -419 351 -129 92 -224 143 -309 166
-23 6 -56 22 -74 35 -35 27 -206 96 -226 92 -21 -4 -107 24 -101 33 3 5 -1 9
-8 9 -7 0 -26 7 -43 16 -20 10 -43 14 -67 10 -21 -4 -38 -2 -38 2 0 12 -62 29
-155 42 -44 6 -88 13 -97 15 -10 2 -18 -1 -18 -6 0 -5 -7 -9 -16 -9 -8 0 -12
4 -9 10 4 6 -1 7 -11 3 -10 -4 -15 -2 -11 3 3 6 1 16 -4 24 -8 13 -10 13 -18
1 -7 -11 -26 -13 -92 -8 -45 4 -86 10 -91 15 -6 6 -32 155 -54 320 -6 38 -38
45 -48 10z m44 -204 c0 -8 -4 -12 -10 -9 -5 3 -10 13 -10 21 0 8 5 12 10 9 6
-3 10 -13 10 -21z m10 -61 c0 -13 -3 -13 -15 -3 -8 7 -15 19 -15 27 0 13 3 13
15 3 8 -7 15 -19 15 -27z m20 -104 c0 -16 -18 -10 -34 13 -26 37 -19 57 9 25
14 -15 25 -32 25 -38z m-340 2 c0 -15 -12 -19 -68 -27 -34 -4 -52 -3 -52 4 0
8 39 19 113 31 4 0 7 -3 7 -8z m128 -2 c-2 -6 -7 -10 -11 -10 -4 1 -25 1 -47
1 -22 0 -40 5 -40 10 0 6 23 10 51 10 32 0 49 -4 47 -11z m92 -4 c0 -9 -9 -15
-24 -15 -13 0 -29 7 -36 15 -11 13 -7 15 24 15 25 0 36 -4 36 -15z m193 -10
c4 -8 2 -17 -4 -21 -15 -9 -39 3 -39 21 0 19 36 20 43 0z m-89 -20 c9 -14 13
-25 10 -25 -11 0 -44 32 -44 42 0 16 18 8 34 -17z m216 10 c0 -15 -102 -13
-108 3 -3 10 9 12 52 10 31 -2 56 -7 56 -13z m-691 -10 c-21 -22 -93 -33 -87
-14 5 14 38 26 78 28 22 1 23 -1 9 -14z m415 -538 c-3 -298 -2 -620 3 -716 4
-95 6 -356 3 -579 l-5 -406 -65 -16 c-36 -9 -75 -20 -86 -24 -19 -6 -28 4 -69
75 -71 123 -95 180 -95 225 0 62 68 487 85 526 7 19 23 115 35 214 24 205 95
693 146 996 18 113 34 218 34 233 0 15 4 24 10 20 7 -4 8 -190 4 -548z m413
539 c3 -2 3 -11 1 -18 -2 -12 -13 -12 -57 -4 -30 6 -57 17 -59 25 -4 11 6 13
53 8 31 -3 59 -8 62 -11z m-667 -22 c6 -14 10 -43 10 -64 0 -21 5 -42 11 -46
9 -5 10 12 5 65 l-7 72 53 -3 53 -3 7 -59 c10 -81 21 -85 17 -6 -4 64 -4 65
20 62 14 -1 27 -5 29 -7 3 -3 -5 -64 -16 -137 -12 -73 -26 -172 -32 -221 -13
-108 -23 -135 -52 -141 -13 -2 -95 -18 -183 -35 -325 -61 -568 -161 -860 -352
-239 -156 -400 -337 -578 -647 -125 -219 -136 -242 -195 -407 -61 -171 -96
-300 -116 -424 -8 -51 -17 -96 -20 -99 -7 -6 -331 -61 -361 -61 -11 0 -45 -5
-75 -10 -58 -11 -70 -6 -70 32 0 17 6 18 66 11 44 -4 65 -3 61 3 -4 6 -34 13
-67 17 l-60 7 0 56 0 55 70 -4 c85 -5 78 9 -9 18 l-63 7 7 50 c3 28 9 55 11
59 3 5 35 6 72 2 81 -7 67 11 -16 22 l-54 7 7 36 c13 76 9 73 88 66 84 -8 75
10 -10 21 -58 7 -62 13 -39 69 10 24 19 32 33 29 10 -2 64 -15 120 -29 120
-29 139 -31 147 -8 9 22 1 26 -123 58 -165 44 -153 36 -134 90 19 51 30 54 93
29 23 -9 44 -14 47 -10 7 6 -74 45 -96 46 -9 0 -11 8 -7 23 8 34 35 97 42 97
2 0 22 -9 44 -20 22 -11 44 -20 50 -20 22 0 -3 22 -46 40 -24 11 -44 23 -44
27 0 17 33 93 41 93 4 0 28 -9 54 -20 26 -11 49 -20 52 -20 15 0 -22 29 -56
45 l-40 18 25 48 c13 27 29 49 35 49 5 0 27 -9 49 -20 43 -22 50 -24 50 -12 0
4 -20 18 -45 31 -25 13 -45 29 -45 35 0 6 9 26 20 44 25 40 22 41 154 -40 74
-46 103 -58 114 -51 9 5 17 14 19 19 1 5 -52 42 -117 83 -66 41 -120 76 -120
79 0 3 27 44 46 70 1 2 23 -10 48 -27 24 -17 47 -31 50 -31 17 0 1 18 -38 45
l-44 29 20 41 c38 75 47 75 121 7 15 -14 27 -21 27 -15 0 6 -21 29 -47 51
l-47 40 28 41 c16 22 33 41 38 41 6 0 32 -18 59 -41 30 -25 49 -35 49 -27 0 8
-20 29 -45 47 -25 18 -45 38 -45 44 1 7 19 32 41 56 l40 45 54 -54 c30 -30 55
-50 55 -44 0 5 -20 30 -45 54 -25 24 -45 48 -45 52 0 14 43 68 53 68 5 0 30
-18 54 -41 25 -22 48 -38 51 -34 4 4 -15 27 -41 51 -27 24 -43 44 -35 44 8 0
31 -18 53 -40 21 -22 41 -37 44 -35 3 3 -16 27 -42 53 l-47 48 40 39 c22 21
41 37 43 34 2 -2 19 -26 37 -53 19 -28 35 -45 38 -38 2 6 -11 32 -28 57 -17
25 -29 49 -25 54 3 5 23 23 44 40 l39 31 32 -50 c18 -27 36 -50 41 -50 14 0
11 9 -21 55 -16 24 -30 48 -30 54 0 10 68 61 82 61 4 0 22 -21 39 -47 18 -26
34 -42 37 -35 2 6 -10 31 -27 56 l-31 44 51 32 c27 18 51 31 53 29 2 -2 16
-26 31 -53 16 -27 31 -44 33 -38 2 6 -8 31 -22 55 -14 24 -26 46 -26 48 0 7
89 53 93 49 3 -3 30 -56 61 -117 31 -62 60 -113 65 -113 5 0 14 7 21 15 10 12
1 34 -45 120 -31 58 -54 112 -51 120 3 8 23 23 44 34 l40 20 22 -52 c15 -33
24 -46 27 -35 2 9 -3 30 -11 47 -24 45 -20 55 29 79 25 12 47 22 50 22 2 0 11
-25 20 -55 9 -31 20 -53 25 -50 5 3 2 25 -7 50 -8 25 -13 51 -10 58 3 8 26 22
52 32 54 20 60 16 70 -47 4 -21 12 -41 17 -45 8 -4 9 5 4 28 -21 100 -24 93
36 112 30 9 57 17 61 17 3 0 9 -20 12 -43 4 -24 11 -50 15 -58 17 -27 20 -1 6
52 -7 30 -12 55 -11 57 2 2 24 10 49 17 57 17 57 17 80 -115 24 -136 25 -140
41 -140 19 0 19 12 -9 153 l-23 119 24 9 c14 5 39 10 56 12 32 2 32 1 35 -48
2 -27 8 -54 14 -60 7 -7 9 10 4 56 l-6 66 42 11 c53 14 62 6 63 -51 1 -23 5
-43 11 -44 5 -2 8 22 6 56 l-4 59 49 10 c26 5 51 10 56 11 4 0 12 -11 17 -25z
m-270 2 c0 -15 -49 -36 -86 -36 -38 0 -28 27 14 38 54 14 72 14 72 -2z m1072
-9 c9 -15 -31 -21 -79 -12 -21 4 -33 12 -33 22 0 13 8 14 52 9 29 -4 56 -13
60 -19z m-488 -18 c14 -17 26 -40 26 -52 0 -20 -2 -20 -29 8 -30 31 -49 75
-33 75 6 0 22 -14 36 -31z m92 17 c3 -8 1 -30 -4 -50 -6 -22 -7 -38 -1 -42 10
-6 15 5 24 59 6 37 6 37 55 37 l50 0 0 -51 c0 -31 4 -48 10 -44 6 3 10 25 10
47 l0 41 50 -6 c28 -3 55 -9 60 -12 5 -3 7 -26 3 -52 -4 -34 -3 -44 5 -39 7 4
12 22 12 41 0 19 5 37 10 40 6 4 35 3 66 -1 39 -4 54 -10 50 -20 -13 -33 -18
-87 -8 -80 6 3 13 25 17 47 7 38 9 41 34 36 48 -10 81 -26 81 -40 0 -8 -16
-63 -35 -123 -30 -95 -32 -111 -20 -123 13 -13 16 -10 29 20 7 19 24 78 36
131 l22 97 50 -19 c28 -10 53 -21 56 -25 3 -3 -2 -21 -11 -40 -9 -19 -12 -37
-8 -40 5 -2 16 13 25 35 18 45 20 46 76 24 43 -18 47 -26 25 -64 -17 -29 -18
-40 -7 -40 5 0 17 18 27 40 10 22 19 40 20 40 1 0 22 -7 48 -16 51 -17 56 -28
32 -74 -8 -16 -11 -31 -6 -34 5 -4 17 14 26 38 l17 45 52 -20 c28 -12 53 -23
56 -26 2 -2 -6 -22 -18 -44 -12 -21 -18 -39 -13 -39 6 0 20 18 31 40 11 22 22
40 25 40 16 0 95 -46 95 -55 0 -7 -29 -58 -65 -114 -66 -105 -73 -117 -55
-106 6 3 10 1 10 -4 0 -6 -7 -11 -15 -11 -16 0 -20 -16 -6 -24 13 -8 32 18
101 137 39 68 66 105 73 100 7 -4 28 -18 47 -32 19 -14 37 -26 39 -27 1 -2 -9
-18 -23 -37 -37 -48 -32 -59 7 -14 l32 37 48 -31 c26 -17 47 -35 47 -39 0 -5
-12 -23 -26 -40 -37 -43 -25 -47 15 -6 l33 35 49 -37 49 -36 -30 -31 c-44 -45
-37 -66 8 -23 l37 36 39 -34 39 -34 -31 -39 c-44 -55 -40 -63 7 -17 l40 39 35
-29 c43 -36 44 -54 6 -82 -30 -23 -41 -62 -17 -62 7 0 26 14 42 30 36 37 51
37 95 -1 l35 -30 -24 -17 c-47 -33 -66 -50 -60 -56 3 -3 24 7 47 24 23 16 44
30 47 30 10 0 64 -65 65 -76 0 -7 -16 -24 -36 -39 -19 -15 -33 -29 -30 -32 2
-3 20 7 39 21 19 14 38 26 43 26 5 0 24 -21 43 -46 38 -50 39 -47 -31 -85 -21
-10 -38 -24 -38 -30 0 -6 25 4 56 21 30 18 57 31 58 29 2 -2 16 -24 31 -48
l27 -44 -23 -18 c-13 -10 -32 -21 -41 -25 -10 -3 -18 -9 -18 -14 0 -12 28 -1
63 24 30 22 32 20 66 -36 l22 -36 -83 -50 c-46 -27 -98 -57 -115 -66 -21 -10
-33 -24 -33 -36 0 -20 24 -28 34 -11 9 14 193 121 209 121 13 0 66 -96 56
-103 -2 -2 -23 -11 -46 -22 -24 -10 -43 -22 -43 -27 0 -11 2 -10 43 7 53 22
61 19 85 -30 l22 -46 -25 -9 c-14 -5 -37 -13 -50 -16 -14 -3 -25 -10 -25 -15
0 -9 34 -4 78 12 13 5 26 9 28 9 6 0 56 -111 52 -115 -2 -1 -24 -8 -50 -15
-48 -13 -86 -40 -56 -40 8 0 36 7 62 16 26 9 49 14 52 11 3 -3 12 -26 19 -51
l14 -46 -42 -10 c-23 -6 -49 -14 -57 -17 -29 -12 19 -15 52 -4 17 6 36 11 43
11 14 0 35 -64 26 -77 -3 -5 -46 -22 -96 -37 -136 -41 -143 -45 -138 -67 3
-10 8 -19 10 -19 3 0 52 14 110 31 58 16 112 29 121 27 10 -2 20 -22 27 -55
l12 -52 -56 -15 -56 -15 60 2 c59 2 60 2 66 -28 14 -65 11 -85 -15 -85 -39 0
-86 -12 -86 -22 0 -5 25 -6 59 -2 58 6 60 6 66 -19 4 -13 5 -38 3 -53 -3 -27
-7 -29 -48 -32 -74 -4 -79 -16 -10 -22 l65 -5 3 -51 3 -52 -56 -7 c-74 -9 -70
-21 5 -17 59 4 60 3 60 -22 0 -30 -5 -30 -94 -16 -34 5 -135 19 -226 30 -91
12 -168 25 -172 28 -3 4 -18 75 -33 157 -50 278 -86 386 -209 640 -55 112
-184 308 -281 425 -30 36 -62 82 -71 103 -9 20 -23 37 -30 37 -7 0 -70 48
-141 108 -70 59 -171 135 -223 169 -112 72 -350 193 -435 221 -133 44 -164 53
-265 77 -58 14 -139 28 -180 32 -95 7 -110 15 -110 56 0 18 -11 120 -25 227
-14 107 -25 202 -25 212 0 21 28 24 36 4z m531 -2 c-3 -3 -12 -4 -19 -1 -8 3
-5 6 6 6 11 1 17 -2 13 -5z m-1352 -24 c0 -19 -83 -46 -98 -31 -7 7 2 16 34
30 48 21 64 22 64 1z m1318 9 c49 -13 53 -44 5 -34 -51 11 -78 23 -78 35 0 13
25 13 73 -1z m140 -35 c34 -11 47 -21 47 -35 0 -10 -6 -19 -13 -19 -15 0 -107
30 -107 35 0 11 13 35 19 35 4 0 28 -7 54 -16z m-1583 -15 c0 -11 -58 -38 -91
-42 -43 -4 -30 22 18 37 59 18 73 19 73 5z m886 -61 c25 -49 15 -51 -26 -7
-21 24 -39 53 -40 63 0 18 2 17 26 -5 14 -13 32 -36 40 -51z m862 13 c2 -6 1
-18 -1 -26 -5 -11 -13 -11 -51 4 -56 21 -62 27 -47 45 10 11 19 12 53 1 23 -6
44 -17 46 -24z m-1888 1 c0 -12 -15 -23 -47 -35 -60 -21 -63 -21 -63 1 0 13
14 23 48 34 62 21 62 21 62 0z m1050 -114 c0 -11 -15 -1 -45 31 -25 26 -45 57
-45 67 0 24 89 -73 90 -98z m914 92 c43 -18 58 -41 37 -54 -9 -6 -101 29 -101
38 0 8 12 36 15 36 2 0 24 -9 49 -20z m-2089 -29 c7 -13 -81 -65 -95 -56 -19
12 -10 31 23 48 37 18 63 21 72 8z m1185 -130 c0 -11 -5 -9 -21 5 -29 26 -79
94 -79 108 1 16 100 -96 100 -113z m541 88 c-5 -13 -10 -19 -10 -12 -1 15 10
45 15 40 3 -2 0 -15 -5 -28z m493 11 c25 -12 46 -27 46 -35 0 -19 1 -19 -65 6
-53 20 -63 28 -48 42 10 10 16 9 67 -13z m-2337 -35 c4 -14 -81 -60 -96 -51
-19 12 -12 25 27 45 39 21 63 23 69 6z m2481 -21 c34 -14 42 -31 18 -40 -20
-8 -96 33 -96 52 0 16 14 14 78 -12z m-1168 -106 c-1 -7 -25 14 -55 46 -72 77
-71 98 0 24 30 -31 55 -62 55 -70z m514 88 c-3 -15 -8 -25 -11 -23 -2 3 -1 17
3 31 3 15 8 25 11 23 2 -3 1 -17 -3 -31z m775 -52 c49 -33 52 -37 37 -52 -13
-13 -19 -14 -39 -3 -50 27 -78 56 -72 74 9 23 12 22 74 -19z m-2749 13 c0 -15
-74 -60 -84 -50 -12 13 -6 24 27 43 37 23 57 25 57 7z m1460 -94 c0 -20 -57
25 -81 63 -31 51 -22 51 31 -1 28 -27 50 -55 50 -62z m-1567 33 c6 -15 -86
-79 -97 -68 -15 14 -3 32 37 56 49 30 53 30 60 12z m1567 -73 c20 -26 27 -53
12 -53 -9 0 -70 71 -98 115 l-19 30 42 -33 c24 -18 52 -45 63 -59z m-1345 -3
c19 -38 35 -75 35 -82 -1 -13 -79 129 -80 145 -1 20 13 1 45 -63z m2751 36
c37 -29 42 -36 29 -46 -12 -10 -23 -7 -60 16 -43 28 -53 43 -38 57 12 12 23 8
69 -27z m-1442 -55 c34 -42 56 -78 56 -92 -1 -21 -10 -14 -65 46 -39 42 -65
79 -65 93 0 12 4 22 9 22 5 0 34 -31 65 -69z m1157 16 c-10 -9 -11 -8 -5 6 3
10 9 15 12 12 3 -3 0 -11 -7 -18z m-2806 2 c7 -11 -12 -30 -57 -54 -23 -13
-27 -13 -32 0 -3 9 8 24 32 40 41 28 48 30 57 14z m3236 -65 c10 -12 2 -44
-11 -44 -4 0 -28 16 -54 36 -38 29 -45 38 -35 50 10 12 17 11 51 -8 21 -12 43
-28 49 -34z m-1589 -26 c94 -108 85 -135 -13 -41 -39 37 -59 64 -59 80 0 12 4
23 9 23 5 0 33 -28 63 -62z m-232 24 c0 -10 -7 -60 -16 -111 -9 -51 -13 -95
-10 -98 3 -4 6 4 6 17 0 13 3 21 6 18 3 -4 2 -33 -2 -65 l-8 -58 -6 40 c-5 35
-7 27 -19 -55 -7 -52 -19 -126 -28 -165 -8 -38 -16 -80 -19 -91 -3 -18 -19
-25 -100 -44 -114 -26 -349 -140 -497 -241 -50 -34 -105 -68 -123 -75 l-33
-14 -103 91 c-57 50 -146 119 -198 155 -52 35 -111 77 -130 93 l-35 30 30 31
c135 143 520 364 756 436 216 65 302 87 399 104 136 23 130 23 130 2z m-1520
-13 c0 -12 -14 -25 -58 -56 -37 -26 -38 -5 -2 32 34 35 60 45 60 24z m1962 1
c191 -19 632 -188 843 -325 71 -46 271 -207 295 -238 l21 -26 -113 -94 c-104
-86 -226 -180 -304 -235 l-32 -22 -73 53 c-171 121 -208 139 -464 234 -109 40
-205 79 -211 86 -7 6 -20 68 -29 137 -9 69 -25 179 -36 245 -22 141 -24 195
-6 195 6 0 55 -5 109 -10z m-155 -132 c15 -18 26 -58 16 -57 -11 1 -136 142
-142 160 -4 13 104 -76 126 -103z m1599 86 c33 -26 46 -64 22 -64 -24 1 -81
58 -75 74 8 21 13 20 53 -10z m-3511 -34 c8 -13 -74 -92 -87 -84 -5 4 9 26 33
50 48 49 46 48 54 34z m1870 -71 c64 -74 83 -105 71 -117 -13 -12 -156 157
-156 184 0 23 23 5 85 -67z m1742 9 c36 -35 42 -58 16 -58 -23 0 -83 59 -76
76 8 22 24 17 60 -18z m-1737 -83 c68 -76 96 -125 72 -125 -17 0 -162 171
-162 190 0 11 3 20 8 19 4 0 41 -38 82 -84z m-2000 13 c-1 -7 -12 -26 -25 -43
-18 -22 -27 -27 -36 -18 -8 8 -5 19 12 42 23 31 49 41 49 19z m2009 -94 c76
-82 99 -115 67 -97 -16 9 -166 170 -166 178 0 18 28 -6 99 -81z m1844 46 c34
-32 38 -39 22 -39 -21 0 -85 52 -85 69 0 20 21 10 63 -30z m-123 -4 c0 -2 -8
-10 -17 -17 -16 -13 -17 -12 -4 4 13 16 21 21 21 13z m-1717 -97 c83 -87 98
-109 78 -109 -12 0 -181 178 -181 191 0 21 20 5 103 -82z m-2083 65 c0 -10
-72 -94 -81 -94 -18 0 -8 21 27 60 33 36 54 50 54 34z m4010 -50 c23 -27 29
-39 20 -48 -8 -8 -20 -1 -46 27 -31 34 -37 57 -14 57 4 0 22 -16 40 -36z
m-1922 -78 c51 -51 92 -101 92 -110 0 -10 -3 -16 -7 -14 -18 7 -193 195 -193
206 0 24 18 10 108 -82z m-3 -58 c96 -102 121 -135 111 -146 -10 -9 -216 201
-216 221 0 10 4 17 9 17 5 0 48 -42 96 -92z m-2212 25 c-29 -36 -44 -44 -50
-26 -2 5 11 25 28 46 22 27 35 35 42 28 8 -8 2 -22 -20 -48z m1900 10 c-3 -21
-10 -45 -15 -53 -9 -14 -3 30 8 73 9 30 13 18 7 -20z m2325 -3 c32 -38 35 -60
9 -60 -16 0 -78 80 -71 91 10 18 30 8 62 -31z m-1898 -227 c0 -7 -4 -13 -8
-13 -18 0 -214 209 -207 221 8 13 215 -187 215 -208z m-2389 130 c-6 -15 -20
-39 -31 -53 -15 -19 -22 -22 -31 -13 -9 9 -4 23 21 63 22 34 36 48 43 41 7 -7
6 -19 -2 -38z m4372 -17 c20 -30 24 -43 15 -53 -17 -21 -26 -16 -53 27 -21 33
-23 44 -14 61 12 23 15 22 52 -35z m-1973 -179 c0 -16 -18 -2 -119 95 -56 53
-101 105 -101 115 0 11 38 -20 110 -92 61 -60 110 -113 110 -118z m-96 54 c85
-85 107 -113 104 -131 -3 -21 -18 -8 -113 94 -119 128 -133 146 -113 146 7 0
62 -49 122 -109z m-1509 -76 c86 -110 225 -306 225 -317 0 -6 -20 -32 -43 -59
-46 -52 -158 -242 -202 -343 -14 -32 -39 -107 -56 -168 -49 -183 -46 -180
-224 -205 -60 -8 -182 -26 -270 -38 -87 -13 -162 -22 -164 -19 -13 12 36 235
85 393 80 254 124 346 307 645 20 32 73 108 119 168 l83 110 39 -44 c21 -23
67 -79 101 -123z m1110 118 c-8 -34 -23 -53 -41 -53 -45 0 -187 -60 -309 -131
-77 -45 -179 -100 -226 -124 l-85 -42 -25 20 -24 19 40 35 c92 80 248 175 369
223 84 34 245 79 285 80 20 0 22 -3 16 -27z m-1965 5 c0 -19 -47 -74 -56 -65
-11 11 23 77 41 77 8 0 15 -6 15 -12z m2667 -33 c55 -19 134 -50 175 -71 96
-48 310 -179 332 -203 17 -19 16 -20 -21 -45 -21 -14 -41 -26 -45 -26 -4 0
-49 30 -100 66 -116 83 -230 138 -391 189 -133 42 -137 45 -137 109 0 28 1 28
43 22 23 -4 88 -22 144 -41z m1831 5 c23 -40 22 -60 -2 -60 -16 0 -59 77 -51
90 12 20 30 9 53 -30z m-2125 -95 c107 -115 130 -145 109 -145 -12 0 -228 222
-241 248 -27 52 20 16 132 -103z m1503 -58 c66 -89 135 -183 153 -210 50 -73
191 -401 217 -503 37 -146 74 -331 74 -369 0 -43 -3 -43 -156 -15 -60 11 -134
20 -164 20 -77 0 -238 28 -262 44 -12 9 -54 100 -108 233 -97 242 -137 327
-198 422 -23 35 -42 74 -42 85 0 12 57 91 130 181 72 88 151 186 177 218 25
31 49 57 52 57 3 -1 60 -74 127 -163z m-1504 -4 c70 -71 120 -129 123 -145 4
-16 4 -28 0 -28 -14 0 -236 224 -251 252 -38 72 2 47 128 -79z m1178 103 c0
-2 -19 -15 -42 -30 l-43 -27 35 30 c32 27 50 38 50 27z m-2604 -21 c10 -8 15
-14 9 -14 -5 0 -19 6 -29 14 -11 8 -15 15 -10 15 6 0 19 -7 30 -15z m1000 -47
c-9 -76 -96 -601 -101 -607 -2 -2 -21 10 -42 26 -21 17 -53 38 -70 47 -39 20
-381 285 -382 296 -1 3 23 18 52 34 28 16 75 46 103 67 78 60 324 170 443 198
2 1 0 -27 -3 -61z m1528 -50 c-155 -159 -565 -559 -708 -691 -66 -62 -152
-145 -190 -184 -38 -40 -71 -73 -75 -73 -3 1 -19 12 -36 25 l-29 24 28 58 c15
32 52 101 81 153 49 87 60 100 133 152 43 31 168 126 278 211 109 85 280 209
379 277 99 67 191 131 204 141 13 11 28 19 34 19 6 0 -38 -50 -99 -112z
m-3309 -37 c-4 -3 -178 93 -202 112 -7 5 -10 13 -8 18 3 4 52 -22 109 -59 58
-37 103 -69 101 -71z m1635 119 c-8 -5 -19 -10 -25 -10 -5 0 -3 5 5 10 8 5 20
10 25 10 6 0 3 -5 -5 -10z m1150 -16 c0 -2 -9 0 -20 6 -11 6 -20 13 -20 16 0
2 9 0 20 -6 11 -6 20 -13 20 -16z m-3030 7 c0 -16 -41 -81 -51 -81 -14 0 -11
16 12 54 20 34 39 47 39 27z m4653 -47 c26 -52 28 -74 7 -74 -6 0 -23 27 -40
59 -28 56 -28 66 0 70 3 1 18 -24 33 -55z m-3521 -112 c228 -257 609 -650 782
-808 l98 -91 -24 -28 -25 -29 -99 60 c-106 63 -183 134 -276 255 -32 41 -137
178 -235 304 -226 291 -363 472 -363 480 0 14 26 -13 142 -143z m-56 133 c18
-13 18 -14 -4 -8 -12 3 -25 9 -28 14 -8 14 10 11 32 -6z m1383 -118 c117 -115
151 -156 121 -145 -18 6 -211 181 -241 219 -28 36 -38 64 -20 57 6 -1 69 -61
140 -131z m288 87 c56 -18 130 -47 165 -65 67 -34 225 -135 234 -151 4 -5 -3
-16 -14 -24 -12 -8 -65 -50 -119 -92 -119 -95 -326 -242 -340 -242 -12 0 -19
40 -33 205 -12 133 -23 206 -45 310 -22 103 -21 106 18 99 17 -4 78 -21 134
-40z m333 20 c0 -2 -9 0 -20 6 -11 6 -20 13 -20 16 0 2 9 0 20 -6 11 -6 20
-13 20 -16z m560 -8 c0 -3 -4 -8 -10 -11 -5 -3 -10 -1 -10 4 0 6 5 11 10 11 6
0 10 -2 10 -4z m-2500 -31 c16 -19 3 -19 -30 0 -24 13 -24 14 -4 15 12 0 27
-7 34 -15z m1428 -232 c30 -30 42 -50 40 -66 -3 -19 -23 -3 -137 108 -116 113
-161 167 -161 190 0 8 195 -168 258 -232z m1028 210 c-10 -10 -19 5 -10 18 6
11 8 11 12 0 2 -7 1 -15 -2 -18z m-3646 -8 c0 -16 -57 -105 -67 -105 -17 0
-17 3 12 60 14 28 32 50 40 50 8 0 15 -2 15 -5z m1244 -11 c25 -10 19 -26 -6
-19 -31 10 -47 25 -26 25 9 0 23 -3 32 -6z m2376 -3 c0 -6 -4 -13 -10 -16 -5
-3 -10 1 -10 9 0 9 5 16 10 16 6 0 10 -4 10 -9z m-950 -331 c0 -8 -70 55 -155
140 -85 85 -155 162 -155 170 0 8 70 -55 155 -140 85 -85 155 -162 155 -170z
m2097 281 c16 -29 19 -41 10 -50 -18 -18 -25 -13 -47 29 -34 67 0 86 37 21z
m-1184 -8 c-3 -7 -9 -13 -14 -13 -11 0 -12 34 -2 43 9 10 22 -13 16 -30z
m-1004 -217 c84 -92 107 -124 97 -133 -12 -12 -316 305 -316 328 0 17 14 8 73
-46 39 -37 105 -104 146 -149z m962 167 c-9 -15 -10 -12 -10 17 0 29 1 32 10
18 7 -12 7 -24 0 -35z m-2236 -23 c32 -33 57 -62 54 -64 -3 -3 -34 24 -69 59
-36 36 -60 65 -54 65 5 0 36 -27 69 -60z m41 45 c18 -15 17 -16 -16 -9 -52 10
-72 23 -34 24 16 0 39 -7 50 -15z m1313 -40 c0 -5 -4 -3 -9 5 -5 8 -9 22 -9
30 0 16 17 -16 18 -35z m842 -38 c-8 -8 -11 -1 -11 24 0 46 14 60 18 19 2 -18
-1 -37 -7 -43z m-3581 28 c-6 -14 -15 -37 -20 -52 -7 -17 -14 -23 -21 -16 -9
9 9 68 27 86 16 15 23 6 14 -18z m1480 9 c16 -3 33 -10 36 -16 7 -11 -78 -4
-111 8 -27 11 -16 26 15 20 17 -3 43 -9 60 -12z m1280 -331 c0 -9 -72 53 -160
137 -129 123 -160 157 -160 179 1 23 22 4 160 -138 88 -90 160 -170 160 -178z
m2142 282 c20 -60 21 -75 8 -75 -13 0 -71 116 -63 124 17 17 39 -3 55 -49z
m-1352 8 c0 -58 -16 -74 -25 -25 -7 42 -2 62 16 62 5 0 9 -17 9 -37z m-1982
-19 c51 -20 39 -33 -25 -27 -57 5 -103 24 -103 43 0 12 84 2 128 -16z m1942
-33 c0 -29 -6 -53 -14 -60 -11 -10 -15 -4 -18 31 -5 44 5 78 22 78 6 0 10 -22
10 -49z m-2148 -26 c9 -17 9 -18 -3 -8 -8 6 -22 26 -32 45 l-19 33 21 -25 c12
-14 27 -34 33 -45z m1369 -226 c17 -22 29 -44 27 -50 -6 -17 -319 293 -318
315 0 13 39 -19 130 -104 72 -68 144 -140 161 -161z m-2786 182 c-18 -55 -31
-69 -47 -53 -7 7 -2 28 16 68 19 41 30 54 37 47 8 -8 6 -25 -6 -62z m1388 45
c15 -22 13 -28 -55 -137 -93 -148 -116 -195 -177 -368 -64 -179 -66 -181 -98
-181 -25 0 -25 2 -19 43 13 78 88 286 150 414 57 116 152 253 175 253 5 0 16
-11 24 -24z m192 -26 c27 -27 47 -52 44 -54 -2 -2 -31 20 -64 49 -34 31 -53
54 -45 55 9 0 38 -22 65 -50z m1935 -11 c0 -31 -4 -48 -10 -44 -5 3 -10 29
-10 56 0 31 4 48 10 44 6 -3 10 -29 10 -56z m-1814 35 c18 -14 16 -15 -30 -9
-78 11 -100 24 -40 24 31 1 57 -5 70 -15z m1090 -292 c12 -18 13 -27 4 -36 -8
-8 -32 11 -93 74 -176 183 -207 218 -207 235 0 17 267 -228 296 -273z m-1046
256 c18 -11 -82 -2 -126 12 -19 5 -5 6 41 3 39 -3 77 -10 85 -15z m1946 -79
c94 -141 218 -431 239 -558 7 -43 7 -44 -16 -37 -13 4 -37 11 -54 15 -33 7
-34 10 -61 131 -21 98 -63 186 -163 347 l-82 133 28 34 c26 33 28 34 46 18 10
-9 38 -46 63 -83z m1314 54 c13 -33 8 -63 -9 -63 -13 0 -34 78 -26 98 7 19 17
8 35 -35z m-1520 -23 c0 -27 -4 -52 -10 -55 -6 -4 -10 17 -10 55 0 38 4 59 10
55 6 -3 10 -28 10 -55z m-2005 7 c16 -23 21 -36 12 -28 -24 19 -61 71 -50 71
4 0 21 -19 38 -43z m317 2 c11 -6 18 -12 16 -14 -8 -7 -172 21 -175 31 -4 13
129 -1 159 -17z m1652 -98 c-4 -20 -7 -22 -15 -10 -11 17 -12 123 -1 133 9 10
23 -92 16 -123z m-2055 79 c-32 -39 -47 -52 -33 -27 21 36 47 67 55 67 6 0 -5
-18 -22 -40z m188 -165 c42 -60 107 -155 145 -209 40 -57 65 -103 60 -108 -4
-4 -98 -22 -208 -38 -109 -16 -250 -37 -311 -46 -62 -10 -115 -15 -118 -13
-12 12 50 204 99 304 50 105 124 223 170 273 l21 24 32 -39 c18 -21 68 -87
110 -148z m1062 49 c121 -126 149 -164 120 -164 -6 0 -61 52 -123 116 -131
137 -166 184 -137 184 5 0 68 -61 140 -136z m-961 80 c19 -19 31 -38 28 -41
-7 -7 -76 56 -76 69 0 15 13 8 48 -28z m172 8 c23 -15 23 -17 6 -20 -41 -9
-146 10 -168 29 l-23 20 80 -6 c47 -4 90 -13 105 -23z m1560 -35 c8 -58 3 -88
-11 -65 -10 15 -12 134 -2 125 4 -4 10 -31 13 -60z m-3456 11 c-13 -44 -35
-79 -45 -72 -18 10 14 94 36 94 12 0 15 -6 9 -22z m3422 -122 c-11 -46 -24
-28 -31 44 -5 53 -4 75 6 87 12 14 15 9 23 -45 5 -33 6 -72 2 -86z m189 87
c75 -102 205 -404 205 -476 0 -30 19 -32 -260 19 -102 18 -216 36 -253 40 -37
4 -67 11 -67 16 0 13 323 448 332 448 4 0 24 -21 43 -47z m1463 34 c18 -21 20
-82 3 -82 -15 0 -44 72 -35 86 7 13 20 11 32 -4z m-3446 -64 c64 -84 91 -124
86 -129 -4 -4 -38 38 -141 174 -6 7 -6 12 0 12 6 0 30 -26 55 -57z m342 30
c43 -23 22 -26 -85 -14 -62 7 -98 16 -108 27 -15 15 -9 16 73 10 49 -4 103
-15 120 -23z m712 -98 c77 -83 114 -129 107 -136 -6 -6 -49 31 -126 111 -105
107 -135 150 -108 150 5 0 62 -56 127 -125z m694 19 c0 -54 -4 -83 -10 -79 -5
3 -10 42 -10 86 0 46 4 79 10 79 6 0 10 -35 10 -86z m-1590 50 c0 -8 -4 -12
-10 -9 -5 3 -10 10 -10 16 0 5 5 9 10 9 6 0 10 -7 10 -16z m1553 -86 c4 -65 3
-89 -7 -97 -11 -9 -15 0 -20 41 -8 68 -8 122 0 143 12 31 21 0 27 -87z m-1408
82 c99 -12 125 -17 125 -29 0 -11 -222 17 -234 29 -13 13 -4 12 109 0z m731
-107 c93 -100 117 -133 97 -133 -16 0 -213 207 -213 224 0 9 4 16 8 16 4 0 53
-48 108 -107z m-2696 73 c0 -11 -19 -15 -25 -6 -3 5 1 10 9 10 9 0 16 -2 16
-4z m1883 -21 c23 -32 7 -32 -23 0 -16 17 -19 25 -9 25 8 0 22 -12 32 -25z
m156 11 c83 -13 123 -27 110 -40 -7 -7 -253 34 -263 44 -14 14 40 13 153 -4z
m1291 -92 c0 -58 -4 -103 -9 -100 -10 6 -24 182 -16 196 18 28 25 0 25 -96z
m1831 36 c18 -71 17 -80 -11 -80 -24 0 -49 92 -30 115 9 11 9 15 1 15 -6 0
-11 5 -11 11 0 6 8 9 18 7 12 -2 22 -22 33 -68z m-5012 34 c53 -14 101 -31
106 -36 7 -7 2 -9 -15 -5 -14 3 -69 16 -122 28 -54 12 -98 26 -98 31 0 13 27
10 129 -18z m4888 0 c-3 -3 -12 -4 -19 -1 -8 3 -5 6 6 6 11 1 17 -2 13 -5z
m-5059 -41 c-11 -42 -38 -79 -38 -53 0 34 22 90 35 90 11 0 11 -7 3 -37z
m2716 -62 c69 -69 97 -104 93 -115 -4 -9 -11 -16 -16 -16 -16 0 -191 194 -191
213 0 9 3 17 8 17 4 0 52 -45 106 -99z m600 -110 c-5 -13 -8 -11 -14 9 -10 33
-12 185 -2 194 9 10 25 -182 16 -203z m1676 195 c-20 -8 -51 -16 -70 -19 -23
-4 -15 0 20 12 62 21 104 27 50 7z m-2841 -17 c29 -6 51 -12 49 -14 -7 -6
-238 21 -245 29 -10 11 125 1 196 -15z m1129 -173 c-2 -37 -8 -61 -15 -64 -10
-3 -13 24 -13 111 0 62 3 117 8 121 10 11 23 -97 20 -168z m-1120 145 c49 -7
82 -24 70 -36 -7 -7 -219 25 -238 36 -19 10 93 11 168 0z m1082 -120 c0 -116
-11 -163 -24 -100 -8 42 -8 204 1 212 18 19 23 -3 23 -112z m-538 17 c86 -93
101 -124 33 -72 -39 29 -135 140 -135 155 0 21 19 5 102 -83z m1148 -31 c17
-44 29 -84 28 -89 -3 -9 -66 141 -83 197 -14 44 25 -32 55 -108z m-1652 82
c30 -6 51 -13 49 -15 -8 -8 -202 19 -212 29 -12 11 83 4 163 -14z m1000 -109
c-2 -80 -7 -115 -15 -118 -10 -3 -13 23 -13 106 0 114 6 150 22 134 5 -5 7
-60 6 -122z m-3232 58 c-8 -47 -13 -58 -27 -58 -7 0 -8 13 -4 33 11 55 16 67
27 67 7 0 8 -15 4 -42z m2198 27 c37 -4 65 -10 62 -12 -9 -10 -156 9 -156 19
0 6 6 8 13 5 8 -3 44 -8 81 -12z m531 -75 c43 -44 76 -82 73 -85 -12 -13 -168
134 -168 159 0 16 23 -1 95 -74z m464 -67 c1 -69 -9 -93 -23 -57 -9 23 -7 189
2 198 10 11 21 -57 21 -141z m2050 110 c16 -58 14 -83 -7 -83 -14 0 -21 13
-30 51 -7 28 -10 55 -6 60 12 21 34 7 43 -28z m-3348 0 c13 -16 12 -17 -3 -4
-10 7 -18 15 -18 17 0 8 8 3 21 -13z m354 -3 l50 -7 -60 -1 c-33 0 -71 4 -85
8 -23 7 -22 8 10 8 19 0 58 -3 85 -8z m-119 -21 c19 -22 19 -22 -3 -10 -24 12
-39 31 -25 31 5 0 17 -10 28 -21z m1024 -91 c0 -82 -9 -110 -24 -72 -8 21 -8
169 1 177 15 15 23 -22 23 -105z m-460 57 c48 -49 41 -62 -9 -19 -33 27 -58
64 -43 64 4 0 28 -20 52 -45z m-370 13 c22 -14 -122 -3 -146 10 -15 9 -2 10
56 6 41 -4 82 -11 90 -16z m790 -89 c0 -57 -4 -88 -10 -84 -5 3 -10 44 -10 91
0 49 4 84 10 84 6 0 10 -37 10 -91z m-802 61 c17 0 32 -4 32 -9 0 -10 -47 -5
-110 10 l-35 9 40 -5 c22 -3 55 -5 73 -5z m357 -10 c3 -5 -1 -10 -9 -10 -9 0
-16 5 -16 10 0 6 4 10 9 10 6 0 13 -4 16 -10z m415 -75 c0 -50 -4 -85 -10 -85
-6 0 -10 35 -10 85 0 50 4 85 10 85 6 0 10 -35 10 -85z m-3105 28 c-8 -63 -12
-73 -26 -73 -7 0 -9 16 -4 53 8 58 12 67 26 67 6 0 8 -18 4 -47z m2369 16 c15
-7 5 -8 -33 -4 -30 4 -62 11 -70 16 -20 13 72 2 103 -12z m2916 -44 c0 -70
-24 -78 -34 -10 -8 49 -3 65 20 65 10 0 14 -14 14 -55z m-2218 -27 c-5 -90
-22 -116 -22 -32 0 62 8 104 19 104 4 0 5 -33 3 -72z m-724 45 c-10 -2 -26 -2
-35 0 -10 3 -2 5 17 5 19 0 27 -2 18 -5z m685 -80 c-3 -40 -9 -70 -14 -68 -7
5 -2 105 7 134 9 29 12 4 7 -66z m-623 47 c11 -7 6 -10 -20 -10 -19 0 -42 5
-50 10 -11 7 -6 10 20 10 19 0 42 -5 50 -10z m-530 -58 c-49 -68 -143 -182
-179 -216 -65 -62 -35 -15 81 127 66 81 123 145 126 142 3 -3 -10 -26 -28 -53z
m58 16 c-19 -24 -74 -92 -122 -153 -48 -60 -95 -112 -104 -114 -11 -2 -4 12
19 40 19 24 75 95 123 157 48 61 95 112 103 112 11 0 5 -13 -19 -42z m183 -10
c20 -17 18 -16 -16 3 -22 12 -47 29 -55 37 -20 20 37 -13 71 -40z m678 32 c45
-23 136 -120 158 -170 12 -25 16 -68 17 -150 1 -108 -1 -118 -26 -162 -34 -56
-97 -113 -158 -141 -86 -40 -245 -16 -353 53 -54 34 -111 115 -127 182 -23 90
32 264 101 322 73 62 142 83 267 85 64 1 92 -3 121 -19z m-975 -2 c-24 -42
-217 -277 -230 -282 -15 -6 -14 -3 1 21 24 36 160 210 193 246 26 27 49 37 36
15z m40 0 c-14 -24 -171 -213 -190 -228 -10 -8 2 12 26 45 61 85 153 195 163
195 5 0 5 -6 1 -12z m1136 -50 c0 -45 -3 -59 -11 -51 -10 10 -4 113 7 113 2 0
4 -28 4 -62z m-1435 -98 c-68 -91 -103 -130 -117 -130 -20 0 -20 1 -3 28 22
32 136 174 179 220 17 18 32 28 34 22 2 -6 -40 -69 -93 -140z m139 123 c-43
-67 -198 -255 -202 -245 -2 6 31 57 74 114 86 115 123 158 137 158 5 0 1 -12
-9 -27z m69 15 c-88 -117 -218 -268 -230 -268 -18 0 -2 23 124 178 46 56 91
102 100 102 11 0 13 -4 6 -12z m167 -62 c-56 -81 -156 -196 -171 -196 -5 0 19
37 53 82 64 82 156 188 165 188 2 0 -19 -33 -47 -74z m110 50 c0 -6 -48 -68
-106 -138 -85 -103 -110 -128 -131 -128 l-25 0 34 43 c19 23 61 76 93 117 85
108 106 129 121 123 8 -3 14 -10 14 -17z m1745 -26 c154 -22 357 -53 450 -70
171 -30 726 -108 950 -133 l120 -13 -335 -7 c-184 -4 -405 -12 -490 -18 -103
-8 -292 -9 -565 -4 -225 3 -514 6 -641 5 l-232 -1 -5 33 c-3 18 -8 51 -12 73
l-6 40 133 73 133 73 110 -6 c61 -3 236 -23 390 -45z m-2185 32 c0 -17 -212
-262 -227 -262 -11 0 -13 4 -6 13 95 124 189 239 202 247 20 12 31 12 31 2z
m-81 -29 c-104 -143 -199 -252 -199 -228 0 8 139 186 173 222 32 34 49 38 26
6z m1441 2 c0 -8 -4 -15 -10 -15 -5 0 -10 7 -10 15 0 8 5 15 10 15 6 0 10 -7
10 -15z m-2977 -37 c6 -47 3 -58 -19 -58 -15 0 -19 37 -8 78 10 34 21 26 27
-20z m1352 -75 c-70 -88 -105 -125 -105 -108 0 8 151 208 164 217 6 4 12 3 14
-2 2 -5 -31 -54 -73 -107z m86 40 c-88 -115 -136 -167 -149 -162 -17 6 169
239 191 239 14 0 4 -18 -42 -77z m652 65 c-135 -177 -208 -257 -221 -243 -11
11 196 254 217 255 9 0 10 -4 4 -12z m3217 -44 c0 -39 -4 -54 -12 -52 -18 6
-31 78 -17 94 21 26 29 14 29 -42z m-3936 34 c-4 -7 -38 -54 -75 -105 -63 -85
-103 -123 -116 -109 -6 6 93 143 140 194 30 31 66 45 51 20z m-70 -10 c-4 -7
-41 -57 -81 -110 -51 -67 -80 -98 -94 -98 -17 0 -9 13 41 78 34 42 71 92 82
110 12 18 28 32 40 32 13 0 17 -4 12 -12z m780 -65 c-60 -85 -132 -163 -150
-163 -22 0 -18 8 40 79 77 95 145 166 152 158 4 -3 -15 -37 -42 -74z m-846 49
c-76 -105 -153 -192 -169 -192 -10 0 -19 3 -19 6 0 3 32 42 70 86 39 44 76 88
83 99 6 10 20 19 30 19 16 0 16 -2 5 -18z m-58 2 c0 -10 -103 -134 -139 -168
-57 -54 -44 -18 21 61 36 43 67 86 71 96 6 16 47 25 47 11z m975 -21 c-43 -66
-149 -193 -162 -193 -17 0 -17 1 74 123 41 53 81 97 89 97 15 0 14 -3 -1 -27z
m-1115 -88 c-40 -48 -74 -84 -77 -81 -5 5 113 166 131 178 6 4 12 3 14 -2 2
-5 -29 -48 -68 -95z m9 73 c-23 -45 -113 -158 -126 -158 -22 0 -15 14 42 83
30 36 55 71 55 76 0 9 16 18 33 20 4 1 2 -9 -4 -21z m1145 -5 c-9 -16 -42 -58
-71 -95 -51 -63 -83 -89 -83 -67 0 18 141 189 157 189 13 0 13 -4 -3 -27z
m-1331 10 c-7 -2 -21 -2 -30 0 -10 3 -4 5 12 5 17 0 24 -2 18 -5z m142 -1 c-6
-4 -22 -25 -37 -47 -39 -58 -86 -111 -92 -104 -9 9 108 159 124 159 9 0 11 -3
5 -8z m-218 -8 c-3 -3 -12 -4 -19 -1 -8 3 -5 6 6 6 11 1 17 -2 13 -5z m146
-25 c-24 -41 -102 -127 -103 -113 0 15 98 144 111 144 6 0 2 -14 -8 -31z
m1307 24 c-1 -18 -118 -158 -135 -161 -25 -5 -18 6 53 92 56 68 83 91 82 69z
m-1507 -10 c-7 -2 -21 -2 -30 0 -10 3 -4 5 12 5 17 0 24 -2 18 -5z m161 -5
c-24 -42 -108 -138 -120 -138 -19 0 -19 -1 26 60 22 29 40 59 40 66 0 12 18
20 48 23 8 1 10 -4 6 -11z m1361 -15 c-56 -87 -92 -133 -103 -133 -18 0 -16 5
48 87 54 70 90 100 55 46z m-1445 2 c-6 -8 -9 -18 -6 -23 10 -17 -73 -102
-100 -102 -13 0 -24 2 -24 5 0 7 91 119 104 127 6 4 17 8 25 8 11 0 11 -3 1
-15z m1480 -11 c0 -9 -13 -33 -30 -54 -35 -44 -39 -62 -9 -34 21 19 21 19 18
-1 -3 -15 -13 -20 -42 -22 -20 -1 -37 0 -37 3 0 10 84 124 92 124 4 0 8 -7 8
-16z m-2285 -14 c8 -24 -1 -40 -21 -40 -17 0 -28 24 -20 45 8 22 34 18 41 -5z
m675 8 c0 -19 -79 -108 -96 -108 -21 0 -18 7 32 66 46 54 64 65 64 42z m60 2
c0 -15 -99 -115 -106 -107 -9 8 78 117 93 117 7 0 13 -5 13 -10z m-120 -11 c0
-16 -84 -99 -100 -99 -8 0 -9 4 -3 13 56 72 78 97 90 97 7 0 13 -5 13 -11z
m4700 -37 c0 -15 -5 -22 -12 -20 -16 6 -22 33 -13 56 5 14 7 14 15 2 6 -8 10
-25 10 -38z m-4848 11 c-17 -30 -69 -76 -83 -71 -8 3 6 23 34 53 45 47 69 56
49 18z m88 21 c0 -3 -16 -25 -35 -49 -31 -38 -75 -61 -89 -47 -3 2 13 26 36
53 28 33 49 49 65 49 12 0 23 -3 23 -6z m-219 -42 c-26 -37 -48 -55 -61 -50
-13 4 53 78 70 78 7 0 3 -11 -9 -28z m67 6 c-20 -30 -63 -61 -78 -56 -17 5 52
78 75 78 16 0 16 -2 3 -22z m-108 5 c0 -16 -55 -63 -74 -63 -17 0 -16 5 14 35
31 32 60 45 60 28z m-72 -15 c-6 -17 -56 -53 -64 -45 -7 7 44 57 58 57 5 0 8
-5 6 -12z m-58 -8 c0 -15 -47 -42 -67 -38 -15 3 -15 6 7 26 24 22 60 30 60 12z
m-201 -4 c-2 -2 -22 -6 -44 -9 -28 -5 -34 -4 -20 3 19 8 73 14 64 6z m111 -16
c-8 -5 -17 -7 -19 -4 -3 3 1 9 9 14 8 5 17 7 19 4 3 -3 -1 -9 -9 -14z m-50 -5
c-7 -8 -22 -15 -34 -15 -20 1 -20 2 4 15 33 19 46 19 30 0z m-92 -12 c-10 -2
-26 -2 -35 0 -10 3 -2 5 17 5 19 0 27 -2 18 -5z m5335 -20 c-56 -2 -151 -2
-210 0 -59 1 -13 3 102 3 116 0 164 -2 108 -3z m-3070 -10 c-7 -2 -19 -2 -25
0 -7 3 -2 5 12 5 14 0 19 -2 13 -5z m2377 -3 c-14 -4 -47 -8 -75 -7 l-50 0 55
7 c80 10 101 10 70 0z m-2410 -15 l95 0 16 -65 16 -64 -136 -88 c-144 -93
-153 -97 -247 -79 -27 5 -96 14 -154 20 -110 12 -277 35 -540 76 -85 14 -420
63 -743 110 -324 47 -594 86 -600 87 -57 10 449 14 1243 9 525 -3 998 -5 1050
-6z m1221 -3 c-5 -10 -17 -25 -26 -32 -9 -7 -55 -60 -101 -117 -47 -57 -89
-103 -94 -103 -5 0 -12 5 -15 10 -7 11 30 55 153 183 73 75 103 96 83 59z m58
-9 c-14 -16 -74 -83 -133 -150 -103 -118 -126 -138 -126 -110 0 15 200 249
232 271 38 27 55 20 27 -11z m69 17 c-1 -5 -61 -77 -133 -160 -113 -132 -155
-170 -155 -142 0 15 263 312 277 312 8 0 13 -4 11 -10z m-286 -77 c-138 -155
-188 -183 -64 -36 69 81 109 117 121 107 2 -2 -24 -34 -57 -71z m12 -35 c-84
-98 -135 -143 -123 -110 7 18 200 222 210 222 6 0 -34 -51 -87 -112z m325 93
c-46 -62 -179 -223 -218 -263 -39 -41 -81 -63 -81 -42 0 8 67 90 164 199 95
107 113 125 133 125 13 0 14 -3 2 -19z m81 11 c0 -5 -59 -78 -132 -163 -94
-110 -138 -155 -156 -157 l-25 -4 27 34 c15 18 57 71 93 118 87 112 153 180
175 180 10 0 18 -4 18 -8z m590 1 c0 -4 -48 -56 -107 -115 -109 -110 -164
-145 -101 -66 93 118 208 218 208 181z m524 0 c8 -9 -114 -133 -132 -133 -18
0 -3 24 57 88 48 51 61 59 75 45z m106 -6 c0 -15 -75 -90 -107 -106 -36 -18
-27 -1 31 62 52 56 76 70 76 44z m70 6 c-1 -20 -102 -113 -122 -113 -19 0 -13
9 37 60 53 54 85 74 85 53z m70 3 c0 -3 -24 -27 -52 -55 -48 -46 -78 -63 -78
-44 0 16 95 103 112 103 10 0 18 -2 18 -4z m40 -1 c0 -3 -23 -29 -51 -58 -62
-62 -62 -48 -1 17 41 44 52 52 52 41z m60 -4 c0 -15 -79 -81 -97 -81 -12 0 -4
13 27 45 41 42 70 57 70 36z m70 6 c0 -9 -92 -78 -97 -73 -10 10 59 76 79 76
10 0 18 -1 18 -3z m18 -32 c-21 -19 -43 -35 -50 -35 -7 0 4 16 24 35 21 19 43
35 50 35 7 0 -4 -16 -24 -35z m72 10 c-13 -14 -32 -25 -42 -25 -16 0 -15 4 9
25 38 33 64 33 33 0z m75 5 c-10 -11 -27 -20 -38 -20 -19 0 -20 1 -2 20 10 11
27 20 38 20 19 0 20 -1 2 -20z m55 5 c-7 -8 -19 -15 -27 -15 -13 0 -13 3 -3
15 7 8 19 15 27 15 13 0 13 -3 3 -15z m-2246 -95 c-70 -81 -94 -102 -94 -84 0
11 140 172 153 177 26 9 17 -5 -59 -93z m550 78 c-11 -13 -64 -75 -118 -138
-115 -134 -132 -150 -157 -150 -14 0 5 28 74 108 50 59 110 128 131 155 28 34
46 47 64 47 l25 0 -19 -22z m64 5 c-8 -10 -56 -68 -107 -130 -95 -116 -133
-153 -159 -153 -19 0 -16 5 127 169 75 87 121 131 134 131 18 0 19 -2 5 -17z
m72 11 c0 -3 -50 -66 -111 -140 -72 -86 -119 -134 -131 -134 -23 0 -22 3 51
95 101 128 154 185 172 185 11 0 19 -3 19 -6z m60 1 c0 -5 -86 -116 -156 -199
-28 -34 -60 -62 -72 -64 -12 -2 -22 0 -22 4 0 19 219 264 236 264 8 0 14 -2
14 -5z m64 -17 c-185 -211 -211 -237 -233 -238 -10 0 -4 12 15 33 17 17 43 50
59 72 70 97 127 155 153 155 l25 0 -19 -22z m-1 -70 c-129 -152 -138 -160
-157 -157 -14 3 -5 19 47 79 106 124 152 170 171 170 11 0 -8 -29 -61 -92z
m71 19 c-38 -41 -90 -98 -116 -127 -26 -30 -50 -51 -54 -47 -7 7 180 233 199
241 40 16 32 -3 -29 -67z m65 -8 c-41 -45 -84 -94 -96 -109 -21 -25 -83 -58
-83 -43 0 9 68 91 139 165 45 49 71 68 88 68 23 0 18 -8 -48 -81z m163 44
c-54 -67 -170 -175 -183 -171 -15 5 177 208 198 208 10 0 5 -12 -15 -37z m3
-63 c-61 -61 -107 -100 -120 -100 -15 0 6 26 81 100 56 56 109 100 120 100 13
0 -12 -31 -81 -100z m315 92 c0 -13 -146 -152 -159 -152 -21 0 -11 15 61 87
66 66 98 87 98 65z m-12 -69 c-43 -42 -81 -74 -85 -70 -9 10 127 147 147 147
8 0 -20 -35 -62 -77z m104 40 c-66 -82 -90 -103 -119 -103 -26 1 -24 5 45 70
81 77 124 96 74 33z m110 0 c-42 -53 -81 -88 -89 -80 -6 7 98 117 111 117 4 0
-6 -17 -22 -37z m-1608 15 c-16 -27 -118 -138 -122 -133 -3 2 8 23 23 45 37
54 125 131 99 88z m1167 -67 c-87 -96 -96 -104 -118 -99 -15 3 -10 12 27 52
50 55 136 126 152 126 6 0 -22 -35 -61 -79z m46 -8 c-48 -47 -90 -83 -93 -80
-12 11 138 167 160 167 16 0 1 -20 -67 -87z m70 19 c-31 -32 -57 -63 -57 -70
0 -7 -9 -12 -20 -12 -17 0 -19 3 -11 19 14 26 132 133 139 126 3 -3 -20 -31
-51 -63z m-1384 41 c-6 -17 -5 -17 14 0 43 38 42 14 -3 -44 -60 -76 -75 -85
-42 -26 15 27 24 55 21 67 -3 11 0 20 6 20 6 0 8 -8 4 -17z m-3075 -28 c16
-35 16 -35 -13 -35 -21 0 -25 5 -25 30 0 37 22 40 38 5z m300 -26 c203 -30
223 -35 227 -53 3 -12 14 -82 25 -156 28 -180 59 -269 186 -522 140 -279 181
-350 289 -492 49 -66 100 -134 112 -151 42 -62 281 -247 438 -340 200 -118
495 -222 707 -250 67 -9 137 -20 153 -23 l30 -8 32 -219 c38 -260 39 -275 17
-275 -14 0 -16 8 -12 45 3 25 2 45 -2 45 -9 0 -20 -36 -20 -69 0 -23 -2 -24
-57 -17 -31 4 -59 9 -62 11 -2 3 1 22 7 42 11 35 9 53 -4 40 -4 -3 -9 -21 -13
-39 -7 -32 -8 -33 -65 -36 l-58 -3 7 52 c5 33 4 49 -3 45 -5 -3 -13 -27 -17
-52 -6 -45 -7 -46 -37 -40 -17 3 -39 6 -50 6 -21 0 -21 16 -2 94 12 48 -12 22
-26 -29 -14 -49 -19 -51 -93 -38 -38 6 -39 6 -32 42 4 20 20 78 37 129 16 52
27 96 24 99 -16 16 -34 -16 -60 -108 -40 -143 -40 -142 -88 -136 -56 7 -64 18
-49 64 7 21 15 44 18 52 4 9 1 11 -6 7 -7 -4 -19 -25 -28 -47 -8 -21 -16 -39
-17 -39 -4 0 -101 33 -104 35 -1 1 5 19 13 40 21 49 11 58 -11 11 -10 -20 -22
-36 -26 -36 -5 0 -31 9 -58 21 l-49 21 25 49 c13 27 20 49 14 49 -5 0 -19 -19
-31 -43 -12 -23 -23 -43 -24 -45 -4 -4 -64 26 -82 40 -10 8 -7 21 12 59 27 53
29 59 17 59 -5 0 -19 -23 -32 -50 -13 -28 -25 -50 -27 -50 -5 0 -83 52 -83 55
0 11 40 93 72 148 28 48 37 72 30 79 -20 20 -37 1 -91 -96 -29 -53 -58 -96
-65 -96 -6 0 -28 12 -49 26 l-38 25 26 31 c14 17 23 33 20 37 -4 3 -19 -9 -33
-26 l-27 -33 -47 31 c-27 17 -48 35 -48 39 0 4 10 19 21 34 12 15 18 30 14 34
-4 4 -17 -5 -29 -20 -27 -34 -42 -35 -81 -3 l-30 24 35 36 c18 19 30 38 26 42
-4 4 -20 -7 -34 -25 -15 -18 -33 -32 -41 -32 -17 0 -91 58 -91 72 0 6 17 26
38 44 24 21 31 33 21 34 -8 0 -28 -13 -44 -30 -35 -37 -44 -37 -74 2 l-24 30
31 25 c18 13 32 31 32 39 0 23 -42 16 -72 -13 l-28 -27 -23 23 c-13 12 -30 33
-38 47 -12 24 -11 27 26 59 22 19 35 34 28 35 -6 0 -25 -12 -42 -26 -37 -31
-48 -28 -90 25 l-32 40 41 21 c22 11 38 25 35 31 -4 6 -20 2 -39 -11 -19 -11
-37 -20 -42 -20 -8 0 -54 72 -54 84 0 3 14 12 30 21 17 9 30 20 30 26 0 6 -16
2 -36 -10 -19 -12 -37 -21 -38 -21 -8 0 -56 81 -56 93 0 8 11 20 25 27 14 7
25 17 25 22 0 12 -12 9 -34 -7 -30 -23 -42 -18 -67 21 l-22 37 24 18 c13 10
60 37 104 60 44 23 81 43 83 45 7 5 -19 44 -28 44 -5 0 -54 -25 -107 -55 -54
-30 -101 -55 -106 -55 -9 0 -47 61 -47 76 0 6 17 18 38 29 20 10 32 20 25 22
-7 2 -21 0 -32 -6 -34 -19 -50 -12 -71 29 -24 47 -22 55 25 70 19 6 35 16 35
21 0 12 -1 12 -45 -7 -45 -18 -53 -13 -79 54 -12 33 -13 43 -4 47 7 2 26 7 42
12 17 5 31 14 34 21 2 8 -9 8 -42 -2 -51 -15 -56 -13 -75 43 -17 52 -15 56 37
70 56 16 43 26 -17 12 -41 -9 -42 -8 -55 23 -8 18 -17 42 -20 53 -7 21 -14 20
209 59 22 4 31 11 31 25 0 26 -27 25 -148 -4 -53 -13 -102 -21 -108 -17 -6 4
-14 25 -17 47 l-5 41 43 7 c74 12 82 27 12 22 -69 -5 -73 -1 -73 76 0 34 2 37
29 37 34 0 61 9 61 20 0 4 -22 5 -49 2 l-49 -4 -9 53 c-5 30 -8 57 -6 62 2 4
23 7 46 7 23 0 49 5 57 10 18 12 11 13 -63 10 l-48 -2 3 54 c3 53 3 53 38 56
19 2 40 8 45 14 7 7 -6 9 -42 5 -29 -3 -53 -2 -53 3 0 4 -3 16 -7 26 -5 14 -2
16 23 11 16 -3 129 -20 252 -38z m5012 14 c0 -10 -4 -24 -9 -32 -8 -12 -12
-12 -25 -2 -9 8 -16 18 -16 23 0 7 26 22 48 27 1 1 2 -7 2 -16z m-62 -17 c4
-16 -2 -17 -48 -11 -63 9 -62 -10 1 -20 l42 -7 -6 -49 c-8 -68 -12 -71 -64
-63 -59 9 -51 -11 8 -21 l41 -7 -7 -47 c-4 -25 -9 -50 -12 -54 -3 -5 -24 -5
-47 -2 -46 8 -42 -4 7 -21 29 -10 32 -14 29 -50 -5 -65 -7 -67 -58 -60 -53 7
-52 -10 1 -20 20 -3 37 -9 40 -13 2 -4 -1 -26 -7 -49 -7 -28 -16 -42 -27 -42
-9 0 -61 14 -116 30 -61 18 -103 26 -109 20 -18 -18 16 -38 120 -71 l106 -33
-7 -40 c-8 -55 -16 -60 -60 -42 -42 18 -55 20 -55 8 0 -5 18 -15 41 -22 22 -8
42 -17 45 -22 7 -10 -28 -108 -39 -108 -4 0 -22 7 -38 16 -17 8 -36 13 -42 11
-7 -2 9 -14 34 -27 l47 -23 -15 -44 c-19 -54 -31 -60 -83 -39 -56 22 -51 0 5
-24 25 -11 45 -22 45 -24 0 -3 -10 -26 -22 -51 -24 -50 -39 -54 -83 -25 -33
22 -45 25 -45 10 0 -5 18 -19 40 -30 22 -11 40 -25 40 -31 0 -20 -34 -69 -47
-69 -17 0 -195 100 -205 114 -5 7 -15 3 -30 -11 -21 -22 -21 -22 -2 -29 28
-10 194 -105 200 -115 4 -7 -42 -99 -50 -99 -1 0 -17 11 -36 25 -49 36 -62 30
-16 -9 l38 -33 -27 -41 c-15 -23 -30 -42 -32 -42 -3 0 -23 14 -44 31 -23 18
-39 25 -39 17 0 -7 16 -24 35 -38 19 -14 35 -27 35 -30 0 -3 -17 -25 -39 -50
l-38 -44 -27 28 c-14 16 -29 26 -33 22 -4 -3 6 -19 22 -36 l28 -29 -33 -40
c-17 -23 -38 -41 -45 -41 -7 0 -25 14 -40 31 -14 17 -29 29 -32 25 -4 -3 8
-21 25 -39 18 -18 32 -37 32 -42 0 -13 -52 -65 -65 -65 -7 0 -20 9 -30 20 -19
22 -65 27 -65 8 0 -6 11 -26 25 -43 l24 -32 -22 -20 c-40 -36 -47 -36 -78 -7
-34 32 -38 25 -8 -17 24 -34 23 -37 -31 -74 l-41 -29 -24 30 c-26 31 -35 21
-10 -12 22 -29 18 -39 -26 -70 l-41 -28 -24 29 c-27 33 -33 18 -8 -19 15 -24
14 -25 -32 -57 -44 -30 -49 -31 -58 -15 -6 10 -17 25 -24 34 -12 15 -13 15 -8
-5 3 -13 9 -32 12 -42 5 -15 -3 -24 -33 -40 l-40 -20 -58 100 c-54 92 -71 110
-88 92 -4 -3 18 -52 48 -109 l54 -102 -40 -36 c-22 -20 -44 -34 -49 -31 -5 3
-14 21 -20 40 -6 19 -16 35 -22 35 -6 0 -7 -8 -3 -18 4 -9 9 -31 12 -47 4 -28
1 -32 -40 -52 l-46 -22 -11 34 c-6 19 -16 35 -22 35 -6 0 -7 -7 -4 -16 22 -57
20 -63 -25 -84 -60 -27 -67 -25 -75 15 -3 19 -11 35 -16 35 -6 0 -8 -10 -4
-22 19 -69 21 -65 -30 -82 -67 -23 -71 -21 -78 29 -4 25 -12 45 -18 45 -6 0
-8 -10 -4 -25 19 -79 21 -73 -25 -86 -50 -15 -42 -27 -78 115 -26 98 -48 133
-71 110 -7 -7 -2 -37 14 -94 14 -47 28 -102 31 -122 8 -40 0 -46 -70 -51 -28
-2 -30 1 -33 36 -2 20 -8 37 -14 37 -7 0 -8 -14 -4 -39 l6 -39 -44 -11 c-68
-17 -76 -15 -76 18 0 17 -4 33 -10 36 -6 4 -10 -10 -10 -33 0 -45 -10 -52 -70
-52 -37 0 -54 17 -49 46 3 20 -2 34 -12 34 -8 0 -10 -14 -6 -44 6 -43 6 -44
-25 -50 -17 -3 -43 -6 -59 -6 -27 0 -29 3 -29 39 0 22 -4 43 -10 46 -6 4 -10
-13 -10 -45 0 -44 -3 -51 -17 -48 -21 4 -21 7 12 243 26 181 40 264 46 269 2
2 72 13 154 25 207 30 294 52 437 111 306 128 616 336 811 545 128 138 259
341 337 523 67 155 167 462 194 597 14 70 28 130 30 133 6 5 468 80 481 78 6
-2 12 -11 13 -20z m-5228 -60 c0 -19 3 -41 6 -50 4 -11 -2 -19 -17 -25 l-24
-10 22 -6 c17 -6 23 -18 29 -58 12 -73 12 -72 -16 -72 -24 0 -25 3 -39 118
-12 102 -12 120 0 128 27 17 39 10 39 -25z m722 5 c73 -11 183 -24 243 -30
127 -12 165 -21 176 -42 5 -7 26 -78 49 -157 48 -173 93 -270 199 -427 45 -66
81 -126 81 -133 0 -8 -37 -62 -83 -120 -111 -145 -117 -153 -193 -264 -37 -54
-72 -98 -79 -98 -21 0 -49 37 -189 245 -30 46 -211 382 -277 516 -15 31 -37
84 -48 117 -21 61 -64 264 -77 360 l-7 52 36 0 c20 0 96 -9 169 -19z m4558
-41 c0 -40 -4 -51 -21 -61 -33 -17 -41 1 -28 59 8 41 15 52 30 52 16 0 19 -7
19 -50z m-586 -42 c-8 -40 -19 -98 -25 -128 -14 -74 -117 -375 -174 -508 -52
-123 -140 -280 -220 -391 -68 -95 -161 -189 -174 -176 -14 15 -198 259 -274
362 -37 51 -67 98 -67 104 0 7 24 51 54 98 109 173 205 376 252 527 17 57 32
89 47 98 19 12 382 68 512 79 93 8 84 16 69 -65z m-2413 -21 c-8 -8 -11 -4
-11 14 0 33 14 47 18 19 2 -12 -1 -27 -7 -33z m-1014 21 c5 -7 17 -40 27 -73
28 -90 89 -227 144 -318 123 -206 126 -217 93 -258 l-18 -23 -67 90 c-103 138
-199 349 -240 532 l-14 62 33 0 c18 0 37 -6 42 -12z m958 -54 c-3 -19 -10 -34
-15 -34 -14 0 -12 43 2 77 9 23 12 25 15 10 3 -11 2 -34 -2 -53z m893 4 c102
-51 103 -52 190 -162 163 -206 258 -330 398 -521 201 -273 214 -292 214 -301
0 -7 -771 772 -929 938 -63 67 -64 68 -46 89 25 26 43 22 173 -43z m-1561 6
c94 -19 215 -39 269 -44 54 -6 99 -12 102 -14 5 -6 -337 -466 -347 -466 -6 0
-97 149 -158 260 -38 69 -99 223 -108 272 l-7 37 38 -5 c22 -3 116 -21 211
-40z m694 14 c-3 -21 -6 -26 -9 -15 -3 17 3 47 11 47 2 0 1 -15 -2 -32z
m-1061 -32 c0 -26 -6 -18 -14 19 -5 22 -4 26 4 15 5 -8 10 -24 10 -34z m974
-24 c-4 -31 -13 -64 -20 -72 -12 -12 -13 -5 -8 50 7 79 11 93 24 85 6 -4 8
-29 4 -63z m1872 27 c-18 -111 -135 -365 -249 -543 l-64 -98 -22 30 c-11 17
-21 33 -21 37 0 5 29 58 64 119 86 151 126 232 171 353 42 114 63 143 102 143
24 0 25 -2 19 -41z m-122 4 c-16 -64 -89 -263 -122 -328 -19 -38 -57 -103 -85
-144 l-51 -73 -23 28 c-45 55 -208 269 -266 349 -51 70 -56 81 -40 87 44 18
379 79 586 107 4 1 4 -11 1 -26z m-1533 0 c16 -10 29 -24 29 -31 0 -8 -36 -73
-79 -144 -73 -119 -88 -137 -178 -212 -145 -121 -365 -292 -474 -368 -53 -37
-157 -114 -231 -171 -75 -58 -142 -108 -149 -112 -24 -15 214 230 630 646 223
224 410 407 414 408 5 0 22 -7 38 -16z m2885 2 c4 -8 3 -35 0 -60 -7 -42 -9
-45 -37 -45 -33 0 -33 0 -18 70 8 39 15 50 30 50 11 0 22 -7 25 -15z m-3144
-56 c-3 -69 -10 -99 -22 -99 -11 0 -14 143 -3 154 17 17 28 -5 25 -55z m-47
-86 c-4 -29 -11 -53 -17 -53 -13 0 -5 151 9 172 11 18 16 -53 8 -119z m-39 17
c-7 -98 -13 -120 -29 -120 -14 0 -2 177 14 196 6 8 14 14 17 14 3 0 2 -41 -2
-90z m175 51 c-35 -49 -241 -254 -248 -247 -6 6 254 276 265 276 2 0 -6 -13
-17 -29z m422 22 c-7 -2 -19 -2 -25 0 -7 3 -2 5 12 5 14 0 19 -2 13 -5z m270
0 c-13 -2 -35 -2 -50 0 -16 2 -5 4 22 4 28 0 40 -2 28 -4z m1138 -24 c-5 -13
-10 -19 -10 -12 -1 15 10 45 15 40 3 -2 0 -15 -5 -28z m-2054 -88 c-7 -104
-13 -131 -28 -131 -16 0 -2 192 17 222 14 22 16 0 11 -91z m544 41 c34 -32 60
-64 58 -71 -6 -17 -45 14 -99 79 -57 67 -35 63 41 -8z m49 -15 c0 -14 -39 23
-52 48 -8 14 -2 12 21 -9 17 -17 31 -34 31 -39z m285 -78 l78 -142 -12 -111
c-7 -61 -19 -172 -26 -246 -7 -74 -20 -163 -29 -197 -9 -34 -19 -88 -21 -120
-3 -32 -14 -110 -25 -173 -11 -63 -29 -177 -40 -253 -12 -75 -37 -213 -56
-305 -39 -185 -59 -319 -70 -462 -13 -180 -22 -144 -23 95 -1 249 -8 580 -20
985 -3 129 -3 298 2 375 4 77 9 259 10 405 l2 265 55 11 c99 21 88 28 175
-127z m81 125 c18 -14 16 -15 -30 -10 -27 3 -57 6 -67 6 -11 0 -19 5 -19 10 0
16 94 12 116 -6z m-356 -15 c0 -6 -4 -7 -10 -4 -5 3 -10 11 -10 16 0 6 5 7 10
4 6 -3 10 -11 10 -16z m-66 -58 c38 -38 67 -74 65 -80 -5 -13 -108 76 -139
120 -39 54 3 32 74 -40z m-2489 -2 c5 -33 3 -55 -4 -62 -15 -15 -14 -27 3 -27
23 0 37 -82 16 -95 -13 -8 -28 32 -50 135 -16 77 -16 86 -3 97 23 18 30 9 38
-48z m1910 -1 c-10 -96 -27 -178 -38 -185 -6 -4 -7 25 -2 83 5 49 9 102 9 117
1 23 18 46 34 47 2 0 1 -28 -3 -62z m1045 42 c17 -5 -1 -8 -57 -9 -49 -1 -83
3 -83 9 0 12 103 12 140 0z m-478 -77 c48 -47 78 -85 78 -98 -1 -15 -22 2 -85
69 -79 82 -96 106 -78 106 4 0 43 -35 85 -77z m2734 40 c-12 -65 -16 -73 -42
-73 -26 0 -28 8 -18 73 6 33 10 37 36 37 29 0 30 -1 24 -37z m-3987 -56 c45
-112 80 -179 152 -287 88 -130 86 -128 65 -111 -26 21 -133 185 -173 265 -38
75 -83 188 -83 208 0 19 7 6 39 -75z m1240 -27 c86 -94 116 -139 73 -108 -40
28 -183 188 -177 198 3 5 8 10 10 10 2 0 44 -45 94 -100z m535 84 c37 -14 11
-24 -63 -24 -58 0 -82 4 -91 15 -11 13 -3 15 63 15 41 0 82 -3 91 -6z m-1159
-41 c-3 -10 -16 -67 -27 -128 -23 -121 -38 -154 -39 -85 l-1 45 -12 -57 c-25
-116 -45 -76 -25 50 12 74 17 89 37 97 12 5 22 16 22 23 0 19 32 72 43 72 5 0
6 -8 2 -17z m15 -87 c-7 -53 -19 -104 -26 -113 -12 -16 -13 -15 -14 12 0 34
41 207 48 200 3 -2 -1 -47 -8 -99z m603 -5 c97 -98 122 -131 99 -131 -13 0
-222 216 -222 229 0 23 19 8 123 -98z m602 67 l20 -20 -95 6 c-52 4 -100 12
-108 18 -22 19 4 25 86 20 60 -3 81 -9 97 -24z m65 -28 l19 -27 -118 -2 c-104
-2 -119 0 -125 15 -4 9 -5 18 -4 19 4 4 191 -14 206 -20 19 -7 14 10 -8 30
-11 10 -20 22 -20 28 0 13 26 -10 50 -43z m-538 5 c2 -19 0 -35 -4 -35 -4 0
-8 16 -8 35 0 19 2 35 4 35 2 0 6 -16 8 -35z m-138 -94 c89 -90 117 -123 114
-140 -2 -18 -21 -1 -110 96 -60 65 -115 128 -124 141 -34 49 7 16 120 -97z
m-16 -38 c110 -122 139 -160 128 -170 -6 -6 -276 245 -276 257 0 20 14 41 25
38 7 -2 62 -58 123 -125z m2752 111 c0 -8 -5 -35 -11 -60 -9 -33 -16 -44 -26
-40 -8 3 -17 6 -19 6 -6 0 -5 43 2 79 5 24 12 31 30 31 15 0 24 -6 24 -16z
m-4940 -44 c-8 -5 -26 -9 -40 -9 l-25 1 25 8 c14 4 32 8 40 9 13 1 13 0 0 -9z
m2900 -5 c11 -13 -1 -15 -98 -15 -85 0 -112 3 -122 15 -11 13 1 15 98 15 85 0
112 -3 122 -15z m75 -35 c14 -22 -13 -8 -41 22 l-29 31 32 -22 c18 -12 35 -26
38 -31z m-794 -98 c96 -95 139 -144 139 -160 0 -12 -3 -22 -7 -22 -5 0 -75 64
-157 143 -113 108 -148 147 -143 160 3 9 12 17 18 17 7 0 74 -62 150 -138z
m169 77 c0 -37 -4 -58 -10 -54 -18 11 -12 115 7 115 2 0 3 -27 3 -61z m-874
-11 c-3 -24 -8 -67 -12 -95 -4 -29 -13 -58 -22 -65 -13 -11 -14 -9 -9 17 3 17
11 65 18 108 13 79 36 112 25 35z m1468 22 c7 -7 -27 -10 -90 -10 -76 0 -105
4 -120 16 -17 14 -10 15 91 9 60 -3 114 -10 119 -15z m1886 -1 c18 -11 -34 -1
-65 13 -13 5 -9 6 15 2 19 -4 42 -10 50 -15z m-2612 -202 c56 -57 102 -113
102 -123 0 -13 -53 34 -160 141 -88 88 -160 166 -160 173 0 18 90 -61 218
-191z m-2398 147 c22 -49 19 -64 -9 -64 -14 0 -22 12 -30 46 -20 77 9 90 39
18z m2156 -91 c39 -178 76 -445 64 -457 -22 -22 -333 110 -469 198 -72 46 -74
48 -55 66 52 51 420 318 428 310 4 -4 19 -57 32 -117z m819 92 l20 -16 -20 10
c-11 5 -29 17 -40 26 l-20 16 20 -10 c11 -5 29 -17 40 -26z m193 10 c16 -17
12 -17 -77 -11 -116 9 -137 19 -51 26 90 7 109 5 128 -15z m-186 -41 c99 -68
261 -191 318 -242 l40 -37 -102 -77 c-57 -42 -141 -95 -188 -117 -88 -40 -237
-87 -248 -77 -4 5 21 201 70 534 6 39 14 72 19 72 4 0 46 -25 91 -56z m-1368
4 c-8 -58 -24 -118 -30 -118 -5 0 0 48 12 128 3 17 9 32 15 32 5 0 7 -18 3
-42z m1596 32 c0 -5 -2 -10 -4 -10 -3 0 -8 5 -11 10 -3 6 -1 10 4 10 6 0 11
-4 11 -10z m1870 -16 c0 -24 -28 -84 -40 -84 -18 0 -22 26 -11 68 9 33 15 39
31 35 11 -3 20 -12 20 -19z m-2727 -153 c133 -135 163 -171 139 -171 -17 0
-302 286 -302 303 0 9 4 17 8 17 5 0 74 -67 155 -149z m812 140 c36 -8 33 -9
-30 -9 -38 0 -79 3 -90 8 -27 12 65 12 120 1z m-1598 -95 c-14 -73 -22 -95
-31 -85 -7 8 15 144 26 157 19 22 20 7 5 -72z m1708 64 c10 -11 16 -20 13 -20
-3 0 -13 9 -23 20 -10 11 -16 20 -13 20 3 0 13 -9 23 -20z m-30 -11 c14 -5 5
-8 -30 -9 -27 0 -59 -3 -71 -6 -12 -3 -29 3 -45 16 l-24 20 75 -6 c41 -4 84
-10 95 -15z m-3189 -99 c4 -20 1 -29 -11 -34 -24 -9 -31 -2 -45 50 -12 43 -12
48 6 61 17 13 20 11 32 -18 7 -17 15 -44 18 -59z m2297 -58 c172 -173 183
-214 20 -68 -145 129 -173 158 -173 185 0 12 4 21 8 21 4 0 70 -62 145 -138z
m-833 31 c-6 -29 -16 -56 -22 -59 -15 -10 -4 91 14 131 13 29 13 29 17 5 1
-14 -2 -49 -9 -77z m1759 90 c23 -6 23 -7 5 -14 -19 -7 -19 -7 1 -14 11 -4 31
-12 45 -18 23 -11 19 -12 -35 -15 -100 -5 -141 16 -67 36 37 10 37 10 -20 11
-31 1 -60 6 -63 11 -7 11 95 14 134 3z m1758 -11 c19 -12 -15 -112 -38 -112
-27 0 -30 13 -12 68 17 51 26 59 50 44z m-3561 -99 c-9 -62 -15 -83 -25 -83
-10 0 -2 89 11 113 15 30 21 19 14 -30z m923 -120 c77 -73 93 -92 89 -113 -3
-23 -16 -12 -141 112 -75 75 -137 144 -137 153 0 20 44 -16 189 -152z m954
142 c58 -9 44 -22 -20 -18 -76 6 -93 11 -73 23 8 5 24 7 35 5 11 -2 37 -7 58
-10z m-3255 -77 c18 -48 19 -54 4 -65 -26 -21 -39 -15 -56 27 -26 65 -22 80
25 89 4 0 16 -23 27 -51z m2392 -241 c0 -9 -4 -17 -8 -17 -4 0 -65 54 -134
120 -114 109 -158 167 -140 185 10 9 282 -269 282 -288z m-1075 177 c-38 -58
-49 1 -12 69 l22 42 3 -43 c2 -28 -3 -53 -13 -68z m2015 91 c23 -14 21 -15
-44 -12 -45 1 -71 6 -74 15 -5 17 86 15 118 -3z m1560 -26 c0 -30 -28 -79 -45
-79 -18 0 -18 7 -4 51 20 59 49 76 49 28z m-1515 -19 c19 -8 12 -12 -20 -12
-59 0 -85 3 -85 12 0 12 77 12 105 0z m-1072 -190 c59 -57 87 -92 87 -107 0
-13 -2 -23 -5 -23 -3 0 -45 34 -93 76 -111 96 -172 168 -172 202 0 30 -1 31
183 -148z m-1043 110 c-7 -17 -16 -27 -22 -24 -10 6 -1 42 15 63 17 20 21 -5
7 -39z m2145 40 c8 -13 -45 -13 -65 0 -11 7 -6 10 22 10 20 0 40 -4 43 -10z
m-1760 -61 c126 -79 280 -154 381 -184 92 -29 111 -40 119 -75 11 -49 -5 -54
-91 -30 -211 57 -427 168 -584 298 -7 5 52 52 67 52 7 0 55 -27 108 -61z
m1667 25 c47 -33 46 -34 -78 -114 -124 -81 -317 -173 -428 -205 -106 -30 -126
-31 -126 -7 0 31 22 48 105 82 118 48 175 78 335 179 80 50 147 91 149 91 3 0
22 -12 43 -26z m118 6 c12 -7 8 -10 -15 -10 -16 0 -37 5 -45 10 -12 7 -8 10
15 10 17 0 37 -5 45 -10z m-3372 -45 l22 -45 -21 -10 c-24 -13 -43 -1 -65 43
-19 36 -12 57 19 57 17 0 28 -11 45 -45z m4782 18 c0 -30 -32 -103 -46 -103
-24 0 -24 17 -1 69 22 49 47 68 47 34z m-3636 -51 c-16 -23 -19 -24 -22 -9 -2
10 4 30 14 45 16 23 19 24 22 9 2 -10 -4 -30 -14 -45z m2266 39 c0 -4 -11 -6
-25 -3 -14 2 -25 6 -25 8 0 2 11 4 25 4 14 0 25 -4 25 -9z m-1920 -76 c130
-90 223 -135 427 -205 84 -29 157 -58 163 -65 5 -6 23 -106 40 -221 16 -115
34 -229 39 -254 5 -25 12 -64 16 -88 l5 -43 -82 7 c-46 5 -96 7 -113 6 -47 -3
-130 19 -114 30 10 7 8 7 -8 3 -12 -3 -30 -1 -40 5 -36 21 -205 78 -218 74
-12 -5 -70 19 -220 91 -90 44 -246 147 -361 241 -135 110 -132 105 -94 148 42
48 423 345 443 346 4 0 57 -34 117 -75z m724 -58 c70 -66 116 -116 116 -128 0
-10 -3 -19 -7 -19 -14 0 -243 234 -243 248 0 22 13 12 134 -101z m1227 95 c-7
-2 -18 1 -23 6 -8 8 -4 9 13 5 13 -4 18 -8 10 -11z m-7 -64 c55 -40 125 -94
154 -121 29 -26 90 -72 137 -103 l84 -56 -27 -27 c-42 -42 -286 -213 -402
-282 -222 -132 -539 -237 -767 -254 -108 -8 -102 -16 -74 107 16 68 71 422 71
456 0 5 62 31 138 57 182 63 290 115 446 213 71 45 132 82 134 82 3 0 50 -33
106 -72z m-2338 15 c-11 -11 -17 4 -9 23 7 18 8 18 11 1 2 -10 1 -21 -2 -24z
m792 -33 c3 0 3 -3 0 -6 -7 -6 -158 61 -158 70 0 3 34 -10 76 -29 42 -19 79
-35 82 -35z m-1598 46 c-22 -21 -170 -99 -176 -93 -6 6 13 19 106 71 68 37 94
46 70 22z m3145 4 c3 -5 1 -10 -4 -10 -6 0 -11 5 -11 10 0 6 2 10 4 10 3 0 8
-4 11 -10z m-3384 -41 c17 -34 18 -43 7 -50 -23 -15 -37 -10 -53 21 -23 45
-18 65 17 69 4 1 17 -18 29 -40z m1098 19 c-2 -2 -27 -23 -54 -48 l-50 -45 49
52 c28 29 52 50 55 48 2 -3 2 -6 0 -7z m3367 -34 c47 -26 83 -48 80 -51 -5 -5
-69 27 -133 67 -69 44 -45 37 53 -16z m-2379 9 c44 -33 183 -191 183 -207 0
-12 -206 189 -221 217 -14 24 -3 21 38 -10z m2589 3 c7 -18 -23 -76 -39 -76
-6 0 -18 4 -26 9 -11 7 -10 15 8 45 23 37 48 47 57 22z m-1596 -21 c0 -6 -56
-35 -67 -35 -4 1 8 9 27 20 39 22 40 22 40 15z m-809 -227 c6 -11 5 -19 -2
-24 -6 -3 -56 39 -115 98 -75 75 -104 111 -104 128 0 21 16 9 106 -80 58 -58
110 -113 115 -122z m-2244 165 c-9 -9 -20 -13 -24 -9 -4 4 -1 11 7 16 25 16
35 11 17 -7z m60 -48 c13 -28 14 -37 3 -50 -20 -24 -35 -18 -56 21 -19 35 -19
36 0 50 28 20 34 18 53 -21z m2181 -195 c-6 -20 -208 178 -208 204 0 16 25 -4
106 -85 59 -59 105 -112 102 -119z m2320 208 c8 -8 3 -22 -20 -55 -34 -46 -45
-52 -55 -27 -9 23 34 93 58 94 3 0 10 -5 17 -12z m-2369 -192 c19 -20 31 -36
26 -36 -4 0 0 -9 9 -19 10 -11 16 -28 14 -38 -3 -14 -25 4 -93 75 -91 94 -117
130 -108 145 5 8 93 -65 152 -127z m-2060 70 l30 -43 -23 -22 -22 -21 -32 45
c-36 51 -37 56 -20 73 21 21 36 13 67 -32z m2521 39 c0 -6 -73 -25 -78 -20 -2
2 11 8 29 14 41 11 49 12 49 6z m1804 -79 c-16 -20 -32 -36 -36 -36 -20 0 -17
26 8 61 24 35 29 38 42 25 13 -12 11 -19 -14 -50z m-2220 -168 c28 -47 5 -31
-94 65 -58 57 -90 96 -90 110 0 17 17 4 83 -61 46 -45 91 -97 101 -114z
m-2032 99 c24 -37 25 -44 13 -57 -13 -12 -20 -9 -55 25 l-40 40 22 17 c13 10
25 18 28 18 3 0 17 -19 32 -43z m4194 -3 c-11 -33 -56 -76 -71 -70 -12 4 -8
16 21 56 24 33 40 48 46 42 6 -6 7 -18 4 -28z m-2146 -172 c0 -21 -12 -12
-104 76 -57 55 -86 90 -86 105 0 17 19 3 95 -73 52 -52 95 -101 95 -108z m239
87 c-12 -83 -25 -112 -15 -34 11 82 18 116 23 112 2 -2 -2 -38 -8 -78z m-323
-51 c58 -56 84 -89 84 -105 0 -13 -3 -23 -7 -23 -15 0 -173 175 -173 192 0 10
3 18 6 18 4 0 44 -37 90 -82z m-1892 36 c31 -40 39 -69 17 -69 -21 0 -75 71
-68 89 9 24 19 20 51 -20z m4036 -1 c-1 -26 -58 -86 -76 -79 -12 5 -9 14 16
51 32 46 60 59 60 28z m-2132 -123 c41 -44 72 -87 70 -96 -4 -19 -168 146
-168 169 0 27 22 11 98 -73z m-1805 4 c20 -23 34 -44 30 -48 -15 -15 -40 -3
-70 33 -24 29 -29 41 -20 50 15 15 16 14 60 -35z m2092 -14 c-4 -28 -9 -49
-12 -47 -2 3 -1 28 3 56 4 28 9 50 11 47 3 -3 2 -28 -2 -56z m1759 32 c2 -4
-9 -22 -25 -40 -46 -52 -68 -37 -28 19 20 28 43 37 53 21z m-2048 -79 c50 -59
82 -107 67 -102 -28 10 -153 139 -153 159 0 19 2 19 23 6 12 -9 40 -37 63 -63z
m1912 46 c17 -27 5 -40 -14 -15 -8 11 -14 23 -14 28 0 15 15 8 28 -13z m52
-60 c0 -6 -4 -7 -10 -4 -5 3 -10 11 -10 16 0 6 5 7 10 4 6 -3 10 -11 10 -16z
m-1959 -56 c51 -49 69 -73 69 -92 -1 -23 -9 -18 -75 54 -66 70 -88 105 -69
105 3 0 37 -30 75 -67z m266 20 c-3 -10 -5 -4 -5 12 0 17 2 24 5 18 2 -7 2
-21 0 -30z m1646 -25 c-30 -32 -51 -36 -60 -11 -4 11 5 26 27 46 32 28 34 29
47 11 11 -16 10 -21 -14 -46z m-3624 29 c13 -15 19 -30 15 -41 -5 -14 -2 -16
17 -11 18 4 35 -3 67 -27 47 -36 49 -40 27 -58 -12 -10 -24 -5 -67 28 -73 56
-122 108 -114 121 11 17 31 13 55 -12z m1720 -98 c39 -44 68 -85 65 -91 -8
-13 -140 119 -149 150 -11 39 11 24 84 -59z m248 39 c-3 -7 -5 -2 -5 12 0 14
2 19 5 13 2 -7 2 -19 0 -25z m-158 -30 c-1 -40 -3 -47 -8 -28 -4 14 -7 32 -5
40 1 8 3 21 3 28 1 6 3 12 6 12 3 0 5 -24 4 -52z m1745 19 c9 -15 4 -24 -29
-52 -48 -41 -51 -41 -66 -13 -11 20 -8 25 27 55 42 35 52 36 68 10z m-1837
-89 c53 -53 77 -88 59 -88 -7 0 -120 119 -129 136 -17 30 10 11 70 -48z
m-1511 -3 c21 -16 31 -31 28 -40 -8 -21 -20 -19 -62 12 -20 15 -39 29 -42 31
-5 4 22 22 34 22 5 0 24 -11 42 -25z m360 -74 c-26 -50 -51 -91 -57 -91 -6 0
-2 15 9 33 11 17 34 60 52 95 18 34 35 60 37 58 2 -2 -16 -45 -41 -95z m2878
75 c9 -14 4 -23 -28 -51 l-39 -33 -19 22 c-17 21 -17 22 19 54 39 35 50 36 67
8z m-1729 -43 c98 -119 97 -162 -1 -61 -45 47 -64 73 -64 92 0 14 4 26 9 26 6
0 31 -25 56 -57z m1330 -24 c26 -44 44 -83 41 -87 -3 -3 -7 -3 -9 -1 -8 10
-87 159 -87 164 0 15 12 -2 55 -76z m-2730 -11 c49 -35 52 -40 30 -58 -12 -10
-22 -6 -57 21 -24 18 -44 34 -46 34 -6 4 11 35 19 35 5 0 29 -14 54 -32z
m3023 10 c20 -20 14 -33 -33 -67 l-44 -32 -17 26 c-9 14 -15 27 -13 29 16 12
85 56 89 56 3 0 11 -5 18 -12z m-1617 -55 c75 -81 77 -128 2 -51 -54 56 -82
109 -46 90 10 -6 30 -23 44 -39z m86 -90 c-2 -21 -4 -6 -4 32 0 39 2 55 4 38
2 -18 2 -50 0 -70z m-1381 61 c46 -27 49 -31 35 -52 -7 -11 -17 -8 -52 13 -24
15 -45 29 -47 30 -4 3 9 35 15 35 2 0 24 -12 49 -26z m2796 -1 c25 -23 23 -29
-19 -57 -42 -29 -47 -27 -61 14 -10 27 -8 31 16 45 35 18 42 18 64 -2z m-1445
-109 c-6 -6 -80 72 -85 90 -2 6 17 -11 43 -37 26 -27 45 -51 42 -53z m13 -61
c0 -21 -14 -15 -46 20 -57 62 -66 76 -58 88 5 9 22 -4 56 -42 26 -30 48 -60
48 -66z m-1226 86 c61 -36 40 -62 -23 -29 -28 14 -39 25 -35 35 8 20 16 19 58
-6z m2536 1 c0 -11 -16 -30 -37 -45 -34 -22 -63 -32 -63 -21 0 2 -3 11 -6 19
-4 10 9 24 38 41 52 31 68 33 68 6z m-634 -128 c9 -40 14 -75 11 -78 -4 -5
-40 121 -52 181 l-5 30 14 -30 c8 -16 22 -63 32 -103z m-1798 66 c60 -33 55
-52 -8 -25 -27 11 -50 27 -50 34 0 18 8 17 58 -9z m1081 -33 c23 -28 41 -60
41 -74 0 -25 0 -25 -36 10 -39 37 -64 78 -64 104 0 25 14 15 59 -40z m1229 23
c2 -11 -10 -24 -37 -37 -49 -26 -48 -26 -61 -1 -9 17 -5 22 27 39 44 23 66 23
71 -1z m-2183 -50 c41 -20 58 -38 36 -38 -18 0 -101 41 -101 50 0 15 15 12 65
-12z m2068 1 c5 -17 -3 -24 -40 -40 -62 -26 -63 -26 -67 12 -1 10 67 47 90 48
7 1 14 -8 17 -20z m-1092 -84 c10 -11 15 -22 13 -24 -6 -6 -54 40 -66 64 l-11
20 24 -20 c13 -11 31 -29 40 -40z m-854 29 c24 -9 43 -23 43 -31 0 -9 -6 -13
-12 -10 -7 2 -30 10 -50 18 -21 7 -38 19 -38 26 0 17 5 16 57 -3z m1818 -4 c0
-16 -91 -54 -106 -44 -20 12 -3 37 31 50 44 16 75 14 75 -6z m-132 -34 c8 -20
-13 -35 -53 -38 -26 -2 -35 1 -38 14 -2 12 6 20 30 27 47 13 55 13 61 -3z
m-1550 -13 c30 -6 43 -18 28 -27 -13 -9 -102 25 -95 36 3 5 13 6 23 3 9 -4 28
-9 44 -12z m732 -45 c9 -16 14 -28 11 -28 -13 0 -76 64 -76 77 0 20 43 -13 65
-49z m681 21 c10 -17 -7 -27 -59 -34 -44 -7 -49 -6 -45 11 5 26 90 45 104 23z
m-1253 -14 c36 -6 43 -25 9 -25 -33 0 -92 21 -86 31 3 5 13 8 22 5 10 -2 34
-7 55 -11z m1127 -24 c0 -14 -12 -21 -52 -29 -57 -11 -68 -9 -68 13 0 18 11
24 62 34 50 9 58 6 58 -18z m-973 -6 c8 -24 0 -27 -52 -18 -68 11 -71 33 -6
33 37 0 53 -4 58 -15z m140 -8 c2 -2 1 -12 -3 -21 -5 -14 -15 -16 -53 -10 -52
7 -67 17 -56 34 5 9 24 11 58 7 27 -4 51 -8 54 -10z m285 -41 c8 -14 7 -17 -4
-11 -28 16 -48 39 -48 53 0 12 4 11 21 -4 11 -10 25 -27 31 -38z m408 35 c0
-20 -10 -26 -72 -37 -37 -6 -39 -5 -42 29 -1 11 39 23 92 26 16 1 22 -5 22
-18z m-557 -11 c4 -3 5 -14 1 -24 -5 -14 -14 -16 -53 -10 -53 8 -72 19 -64 40
4 11 17 13 57 8 28 -4 55 -10 59 -14z m51 4 c9 -3 16 -15 16 -25 0 -14 -7 -19
-26 -19 -20 0 -25 4 -20 16 3 9 6 20 6 25 0 11 3 11 24 3z m369 -13 c5 -22
-16 -31 -75 -31 -31 0 -38 4 -38 19 0 14 8 21 28 24 63 9 80 7 85 -12z m-133
-16 c0 -9 -9 -15 -25 -15 -16 0 -25 6 -25 15 0 9 9 15 25 15 16 0 25 -6 25
-15z m-158 -22 c10 -9 18 -26 18 -37 -1 -19 -3 -18 -25 9 -36 44 -31 63 7 28z
m23 -102 c-8 -7 -45 36 -45 53 0 6 12 -2 26 -18 14 -15 22 -31 19 -35z m-5
-82 c0 -11 -4 -17 -10 -14 -5 3 -10 15 -10 26 0 11 5 17 10 14 6 -3 10 -15 10
-26z"/>
<path d="M3050 6422 c0 -5 11 -35 25 -66 28 -63 22 -68 -41 -31 -24 14 -45 22
-47 18 -3 -5 2 -26 10 -48 8 -22 17 -50 20 -63 6 -23 5 -23 -51 8 -37 21 -56
27 -56 18 1 -14 113 -83 127 -77 11 6 4 58 -13 91 -18 34 -9 35 51 7 25 -12
48 -19 51 -16 9 9 -51 160 -64 165 -7 2 -12 -1 -12 -6z"/>
<path d="M2798 6160 c-12 -16 -28 -30 -35 -30 -16 0 -39 -47 -29 -58 4 -4 13
1 21 11 11 16 18 12 70 -45 53 -57 58 -61 71 -43 14 19 9 39 -8 29 -13 -8 -88
65 -88 86 1 22 25 50 43 50 15 0 87 -76 87 -92 0 -20 31 -5 45 23 19 35 10 54
-11 24 -14 -18 -16 -17 -62 28 -26 26 -55 47 -65 47 -9 0 -26 -13 -39 -30z"/>
<path d="M6140 6371 c0 -5 7 -11 15 -15 8 -3 15 -12 15 -20 0 -13 -16 -26 -95
-81 -9 -6 -11 -15 -7 -23 6 -9 20 -4 55 23 48 37 87 44 106 21 9 -10 -1 -24
-46 -66 l-56 -52 24 -19 c36 -28 56 -20 27 9 -10 10 -3 21 35 53 56 49 60 74
15 118 -17 17 -28 31 -22 31 13 1 -38 29 -53 30 -7 0 -13 -4 -13 -9z"/>
<path d="M6266 6174 c-20 -21 -26 -37 -26 -70 0 -50 17 -64 74 -64 47 0 46 18
0 22 -43 4 -60 24 -50 62 11 46 35 44 77 -5 20 -24 39 -42 42 -39 11 13 27 50
27 64 0 29 -38 56 -79 56 -28 0 -45 -7 -65 -26z m122 -17 c2 -10 1 -25 -2 -34
-6 -14 -11 -12 -36 12 -38 37 -38 47 2 43 22 -2 34 -9 36 -21z"/>
<path d="M4566 4669 c-81 -19 -126 -76 -126 -161 0 -86 66 -148 155 -148 67 0
114 26 142 80 67 126 -33 260 -171 229z m-11 -179 c-3 -5 -14 -10 -23 -10 -15
0 -15 2 -2 10 20 13 33 13 25 0z m73 -111 c-17 -7 -38 -7 -60 0 -30 8 -28 9
27 9 50 0 56 -1 33 -9z"/>
<path d="M2810 3045 c-7 -9 -11 -36 -8 -72 2 -49 0 -58 -15 -61 -30 -6 -49 17
-41 52 6 31 6 31 -14 12 -18 -15 -19 -22 -10 -40 19 -37 40 -56 63 -56 38 0
48 23 40 90 -6 55 -5 60 12 60 24 0 43 -19 36 -36 -3 -9 2 -14 16 -14 31 0 25
26 -12 54 -39 30 -50 32 -67 11z"/>
<path d="M2908 2876 c-16 -40 -28 -78 -28 -85 0 -11 29 -8 78 10 26 10 27 4 7
-44 -9 -21 -11 -38 -5 -42 10 -6 130 31 144 46 21 20 -7 21 -59 1 -64 -25 -68
-19 -31 51 28 52 25 63 -13 37 -14 -10 -39 -21 -55 -25 -26 -6 -28 -4 -21 17
3 13 9 33 12 46 4 17 11 22 24 19 25 -7 25 19 0 33 -11 5 -21 10 -23 10 -2 0
-15 -33 -30 -74z"/>
<path d="M6232 2997 c-27 -29 -28 -53 -3 -91 22 -32 56 -55 84 -56 24 0 67 44
67 70 0 31 -28 24 -32 -7 -2 -23 -9 -29 -34 -31 -18 -2 -36 3 -43 12 -11 13
-7 20 23 47 38 33 46 63 20 73 -31 12 -61 6 -82 -17z m72 -5 c8 -13 -50 -65
-63 -58 -15 9 -14 39 1 54 14 14 54 16 62 4z"/>
<path d="M6103 2869 c-47 -61 -37 -72 57 -64 84 7 95 1 79 -44 -9 -22 -13 -23
-55 -17 -34 4 -45 3 -42 -7 6 -16 86 -21 104 -6 8 6 14 29 14 50 0 51 -27 64
-100 47 -27 -6 -53 -8 -57 -5 -10 11 27 46 43 40 18 -7 19 21 1 35 -10 9 -20
2 -44 -29z"/>
<path d="M3773 3885 c0 -22 2 -30 4 -17 2 12 2 30 0 40 -3 9 -5 -1 -4 -23z"/>
<path d="M3850 7260 c-24 -24 -25 -34 -6 -50 20 -15 56 -9 70 12 8 13 6 22 -8
37 -24 26 -31 26 -56 1z"/>
<path d="M5287 7252 c-30 -33 -15 -72 28 -72 44 0 63 60 26 80 -27 14 -35 13
-54 -8z"/>
<path d="M2040 7095 c0 -13 512 -515 520 -510 9 6 -498 515 -512 515 -5 0 -8
-2 -8 -5z"/>
<path d="M6920 6878 c-107 -111 -213 -221 -235 -243 -22 -23 -46 -44 -53 -46
-16 -5 -5 -39 12 -39 6 1 33 32 60 71 28 39 135 153 238 255 170 167 203 204
181 204 -5 0 -96 -91 -203 -202z"/>
<path d="M3180 6985 c-26 -32 13 -81 48 -59 34 22 22 74 -18 74 -10 0 -23 -7
-30 -15z"/>
<path d="M5954 6976 c-3 -8 -4 -27 -2 -43 2 -23 8 -29 35 -31 24 -2 34 2 44
19 10 20 8 26 -15 46 -31 26 -54 30 -62 9z"/>
<path d="M2595 6556 c-40 -60 12 -120 61 -71 30 30 31 59 2 79 -31 22 -45 20
-63 -8z"/>
<path d="M6527 6533 c-11 -11 -8 -58 5 -71 7 -7 21 -12 33 -12 12 0 26 5 33
12 7 7 12 21 12 33 0 12 -5 26 -12 33 -13 13 -60 16 -71 5z"/>
<path d="M2157 5982 c-23 -26 -22 -69 3 -82 25 -14 51 -1 70 35 13 25 13 29
-9 46 -29 24 -43 24 -64 1z"/>
<path d="M6966 5954 c-21 -21 -20 -40 4 -64 23 -23 50 -26 68 -8 18 18 15 45
-8 68 -24 24 -43 25 -64 4z"/>
<path d="M1890 5300 c-23 -23 -26 -62 -6 -80 22 -18 57 -8 79 22 42 56 -23
108 -73 58z"/>
<path d="M7230 5250 c0 -35 36 -58 67 -45 17 8 17 8 0 12 -10 3 -17 10 -16 16
4 22 -13 47 -32 47 -14 0 -19 -7 -19 -30z"/>
<path d="M671 4771 c-11 -7 -9 -10 8 -16 12 -3 28 -17 36 -29 13 -20 91 -284
110 -373 3 -18 10 -33 13 -33 4 0 17 18 30 40 21 37 22 42 7 56 -15 15 -15 14
-10 -9 4 -16 1 -34 -8 -48 -15 -20 -16 -20 -23 27 -8 57 -80 317 -95 346 -13
24 -7 32 20 23 16 -5 21 -15 21 -44 0 -37 51 -235 64 -248 17 -17 14 11 -10
93 -15 49 -27 112 -28 139 -1 49 -1 50 32 53 52 5 37 19 -29 26 -83 8 -121 7
-138 -3z"/>
<path d="M1210 4770 c0 -5 18 -10 40 -10 22 0 40 -2 40 -4 0 -1 -22 -68 -50
-147 -27 -79 -51 -147 -53 -153 -7 -20 -43 55 -86 178 -25 71 -52 131 -59 134
-8 2 -26 -26 -48 -73 -34 -73 -104 -258 -104 -273 0 -17 39 59 64 124 45 120
45 120 99 6 26 -55 54 -118 61 -139 33 -92 36 -97 49 -84 6 6 41 100 77 209
58 176 68 198 93 210 46 22 31 32 -48 32 -43 0 -75 -4 -75 -10z m-140 -115
c13 -38 38 -106 57 -149 19 -44 33 -91 31 -105 -2 -19 -21 14 -70 122 -67 146
-74 169 -62 202 9 24 19 9 44 -70z"/>
<path d="M7740 4750 c0 -5 8 -10 19 -10 25 0 41 -21 52 -67 10 -45 -10 -362
-24 -380 -5 -7 -18 -13 -28 -13 -10 0 -21 -5 -25 -12 -5 -8 10 -9 62 -4 38 5
117 7 177 6 l107 -2 0 37 c0 22 -4 34 -10 30 -5 -3 -10 -13 -10 -21 0 -11 -19
-14 -95 -14 l-96 0 3 93 3 92 40 3 c64 6 105 -6 105 -29 0 -11 5 -17 10 -14 6
3 10 31 10 61 0 30 -4 54 -10 54 -5 0 -10 -11 -10 -25 0 -26 -1 -26 -72 -23
l-73 3 -3 90 c-1 50 2 96 6 103 10 16 95 30 144 24 29 -3 35 -7 31 -23 -3 -10
0 -19 6 -19 14 0 34 48 25 61 -7 13 -344 12 -344 -1z m111 -230 c-2 -118 -5
-218 -8 -223 -2 -4 -9 -4 -15 -1 -7 5 -8 64 -4 188 4 107 3 194 -3 213 -10 34
-5 45 19 41 13 -3 15 -30 11 -218z"/>
<path d="M1869 3854 c-11 -13 -11 -20 2 -42 17 -31 43 -39 64 -22 20 17 19 44
-3 63 -23 21 -46 22 -63 1z"/>
<path d="M7236 3835 c-39 -40 -26 -85 25 -85 46 0 63 46 29 80 -24 24 -34 25
-54 5z"/>
<path d="M2158 3179 c-24 -14 -23 -52 3 -75 27 -24 53 -8 57 36 5 45 -22 62
-60 39z"/>
<path d="M6955 3160 c-39 -43 18 -106 59 -65 20 21 21 49 0 69 -21 21 -37 20
-59 -4z"/>
<path d="M2580 2591 c-5 -11 -10 -27 -10 -36 0 -18 43 -37 65 -29 17 7 30 47
21 69 -8 22 -63 19 -76 -4z"/>
<path d="M6512 2593 c-7 -3 -18 -16 -23 -30 -22 -58 58 -103 83 -48 23 50 -14
97 -60 78z"/>
<path d="M2518 2505 c-32 -42 -207 -233 -348 -378 -77 -80 -140 -148 -140
-152 0 -19 35 11 135 115 81 84 343 361 393 414 1 2 -3 8 -10 14 -10 7 -18 4
-30 -13z"/>
<path d="M6600 2471 c0 -9 505 -504 521 -509 5 -2 9 2 9 9 0 7 -46 56 -102
108 -57 53 -173 165 -258 249 -86 83 -159 152 -163 152 -4 0 -7 -4 -7 -9z"/>
<path d="M3150 2157 c-14 -7 -27 -23 -28 -37 -7 -43 53 -67 89 -34 14 13 15
21 6 50 -11 37 -26 42 -67 21z"/>
<path d="M5922 2124 c-27 -18 -28 -36 -4 -57 36 -33 92 -16 92 28 0 44 -46 59
-88 29z"/>
<path d="M3831 1874 c-16 -12 -21 -24 -19 -47 2 -27 8 -33 31 -35 16 -2 35 2
43 9 20 17 14 59 -11 75 -18 12 -24 11 -44 -2z"/>
<path d="M5260 1860 c-24 -24 -25 -38 -4 -68 20 -29 38 -28 63 4 25 32 26 47
5 68 -21 21 -40 20 -64 -4z"/>
<path d="M4588 1231 c-124 -21 -148 -40 -148 -117 0 -64 24 -97 111 -149 115
-71 114 -157 -2 -185 -47 -11 -52 -11 -74 10 -13 12 -27 36 -30 52 -5 20 -10
27 -17 20 -14 -14 -1 -67 20 -84 20 -17 89 -38 124 -38 30 0 113 51 127 79 15
28 14 74 -4 119 -13 32 -29 46 -88 79 -116 64 -139 136 -55 176 18 8 56 17 83
19 46 3 50 1 50 -19 0 -41 20 -29 23 15 2 30 -1 42 -10 41 -7 -1 -57 -9 -110
-18z m-100 -69 c-23 -60 14 -118 103 -162 66 -34 88 -61 96 -117 4 -29 0 -44
-15 -63 -25 -31 -36 -23 -22 16 6 15 9 38 6 50 -9 35 -55 83 -100 105 -52 25
-70 39 -84 66 -17 31 -15 85 4 111 21 30 24 28 12 -6z"/>
</g>
</svg>
